<?xml version="1.0" standalone="no"?>
<!DOCTYPE svg PUBLIC "-//W3C//DTD SVG 1.1//EN" "http://www.w3.org/Graphics/SVG/1.1/DTD/svg11.dtd" >
<svg xmlns="http://www.w3.org/2000/svg" xmlns:xlink="http://www.w3.org/1999/xlink" version="1.1">
<metadata>
Created by FontForge 20201107 at Tue Sep  8 18:44:48 2015
 By Jimmy Wärting
Copyright (c) 2015 by thmbnl. graphic design. All rights reserved
</metadata>
<defs>
<font id="Oduda-Bold" horiz-adv-x="567" >
  <font-face 
    font-family="Oduda Bold"
    font-weight="700"
    font-stretch="normal"
    units-per-em="1000"
    panose-1="0 0 8 0 0 0 0 0 0 0"
    ascent="800"
    descent="-200"
    x-height="484"
    cap-height="740"
    bbox="14.2089 -208 1172 840"
    underline-thickness="50"
    underline-position="-100"
    unicode-range="U+0020-25CA"
  />
<missing-glyph horiz-adv-x="495" 
d="M406 800v-990h-314v990h314zM330 734h-164v-33h65v-37h-66v-32h165v32h-66v37h66v33zM264 606h-99v-103h165v34h-66v69zM231 572v-35h-33v35h33zM330 476h-165v-32h66v-37h-66v-33h99v70h66v32zM330 417h-33v-65h-132v-34h165v99zM330 296h-99v-55h33v22h33v-46h-99v79
h-33v-112h165v112zM330 125h-165v-112h165v112zM297 92v-46h-99v46h99zM330 -10h-165v-32h70l-70 -47v-33h165v33h-101l69 47h32v32z" />
    <glyph glyph-name=".notdef" horiz-adv-x="495" 
d="M406 800v-990h-314v990h314zM330 734h-164v-33h65v-37h-66v-32h165v32h-66v37h66v33zM264 606h-99v-103h165v34h-66v69zM231 572v-35h-33v35h33zM330 476h-165v-32h66v-37h-66v-33h99v70h66v32zM330 417h-33v-65h-132v-34h165v99zM330 296h-99v-55h33v22h33v-46h-99v79
h-33v-112h165v112zM330 125h-165v-112h165v112zM297 92v-46h-99v46h99zM330 -10h-165v-32h70l-70 -47v-33h165v33h-101l69 47h32v32z" />
    <glyph glyph-name="space" unicode=" " horiz-adv-x="275" 
 />
    <glyph glyph-name="A" unicode="A" horiz-adv-x="746" 
d="M704 112c18 -40 -1 -85 -40 -105c-33 -17 -84 -6 -105 41l-35 79h-306l-36 -79c-21 -46 -70 -56 -105 -41c-40 17 -58 65 -40 105l259 579c8 19 24 34 42 42c20 8 45 8 65 0c19 -8 33 -23 42 -42zM290 286h162l-81 182z" />
    <glyph glyph-name="B" unicode="B" horiz-adv-x="534" 
d="M440 383c39 -42 64 -97 64 -158c0 -125 -101 -225 -225 -225h-155c-43 0 -79 36 -79 79v582c0 43 36 79 79 79h134c124 0 225 -100 225 -225c0 -50 -17 -95 -43 -132zM204 580v-130h54c36 0 66 29 66 65s-30 65 -66 65h-54zM279 160c36 0 66 29 66 65s-30 65 -66 65h-75
v-130h75z" />
    <glyph glyph-name="C" unicode="C" horiz-adv-x="696" 
d="M401 -6c83 0 162 26 228 77c35 27 42 77 15 112s-76 41 -112 15c-38 -29 -84 -45 -131 -45c-120 0 -217 98 -217 217s97 217 217 217c48 0 94 -16 132 -45c35 -27 84 -21 112 14c26 36 20 85 -15 112c-67 52 -146 78 -229 78c-207 0 -376 -169 -376 -376
s169 -376 376 -376z" />
    <glyph glyph-name="D" unicode="D" horiz-adv-x="683" 
d="M288 740c204 0 370 -166 370 -370s-166 -370 -370 -370h-166c-43 0 -77 37 -77 80v580c0 44 36 80 80 80h163zM288 160c115 0 209 94 209 210s-94 210 -209 210h-83v-420h83z" />
    <glyph glyph-name="E" unicode="E" horiz-adv-x="488" 
d="M374 160c43 0 79 -36 79 -81c0 -43 -36 -79 -79 -79h-249c-44 0 -80 36 -80 79v582c0 43 36 79 80 79h249c43 0 79 -36 79 -79c0 -45 -36 -81 -79 -81h-169v-140h160c39 0 70 -32 70 -70c0 -39 -31 -70 -70 -70h-160v-140h169z" />
    <glyph glyph-name="F" unicode="F" horiz-adv-x="468" 
d="M365 440c39 0 70 -32 70 -70c0 -39 -31 -70 -70 -70h-160v-221c0 -43 -36 -79 -81 -79c-43 0 -79 36 -79 79v582c0 43 36 79 79 79h250c43 0 79 -36 79 -79c0 -45 -36 -81 -79 -81h-169v-140h160z" />
    <glyph glyph-name="G" unicode="G" horiz-adv-x="799" 
d="M688 438c44 -1 79 -39 76 -84c-4 -97 -42 -187 -109 -253c-68 -69 -160 -107 -257 -107c-101 0 -194 39 -263 111c-68 71 -105 165 -105 265c0 207 168 376 376 376c63 0 125 -16 180 -45c39 -22 53 -70 32 -109s-70 -53 -108 -32c-32 17 -68 27 -104 27
c-119 0 -216 -98 -216 -217c0 -59 21 -114 60 -154c38 -40 91 -63 148 -63c92 0 168 60 195 145h-183c-38 0 -70 31 -70 70c0 38 32 70 70 70h278z" />
    <glyph glyph-name="H" unicode="H" horiz-adv-x="617" 
d="M498 740c43 0 79 -36 79 -79v-582c0 -43 -36 -79 -79 -79c-44 0 -79 36 -79 79v221h-216v-221c0 -43 -35 -79 -79 -79c-43 0 -79 36 -79 79v582c0 43 36 79 79 79c44 0 79 -36 79 -79v-221h216v221c0 43 35 79 79 79z" />
    <glyph glyph-name="I" unicode="I" horiz-adv-x="243" 
d="M124 0c44 0 79 36 79 79v582c0 43 -35 79 -79 79s-79 -36 -79 -79v-582c0 -43 35 -79 79 -79z" />
    <glyph glyph-name="J" unicode="J" horiz-adv-x="378" 
d="M110 -6c64 0 121 25 162 71c40 42 61 100 61 161v434c0 44 -36 80 -80 80c-43 0 -79 -36 -79 -80v-434c0 -34 -21 -72 -64 -72c-44 0 -80 -36 -80 -80s36 -80 80 -80z" />
    <glyph glyph-name="K" unicode="K" horiz-adv-x="550" 
d="M506 134c28 -33 26 -84 -8 -113s-81 -28 -112 6l-182 205v-153c0 -43 -36 -79 -79 -79c-44 0 -80 36 -80 79v582c0 43 36 79 80 79c43 0 79 -36 79 -79v-150l164 188c30 33 80 37 113 7c33 -28 37 -79 8 -112l-195 -223z" />
    <glyph glyph-name="L" unicode="L" horiz-adv-x="472" 
d="M374 0c44 0 80 36 80 80s-36 80 -80 80h-169v500c0 44 -36 80 -81 80c-43 0 -79 -36 -79 -80v-580c0 -44 36 -80 79 -80h250z" />
    <glyph glyph-name="M" unicode="M" horiz-adv-x="823" 
d="M703 740c44 0 80 -36 80 -80v-580c0 -44 -36 -80 -80 -80c-45 0 -81 36 -81 80v283l-145 -297c-13 -26 -38 -40 -63 -40c-26 0 -51 15 -63 40l-146 297v-283c0 -44 -36 -80 -81 -80c-43 0 -79 36 -79 80v580c0 44 36 80 79 80c42 0 66 -29 83 -62
c6 -12 129 -265 207 -424c77 159 201 411 207 424c16 33 40 62 82 62z" />
    <glyph glyph-name="N" unicode="N" horiz-adv-x="670" 
d="M550 740c44 0 80 -36 80 -79v-581c0 -73 -89 -104 -140 -55c-10 10 -19 25 -27 37c-12 19 -244 357 -258 377v-359c0 -44 -36 -80 -80 -80s-80 36 -80 80v581c0 43 36 79 80 79c27 0 47 -13 64 -34c17 -22 186 -268 282 -408v363c0 43 35 79 79 79z" />
    <glyph glyph-name="O" unicode="O" horiz-adv-x="812" 
d="M406 746c208 0 376 -168 376 -376s-168 -376 -376 -376c-207 0 -376 168 -376 376s169 376 376 376zM405 587c-120 0 -215 -97 -215 -217s95 -217 215 -217c118 0 217 99 217 217s-99 217 -217 217z" />
    <glyph glyph-name="P" unicode="P" horiz-adv-x="525" 
d="M280 740c127 0 230 -103 230 -229c0 -127 -103 -230 -230 -230h-75v-201c0 -44 -36 -80 -80 -80c-45 0 -80 36 -80 80v580c0 44 35 80 80 80h155zM280 441c39 0 70 30 70 70c0 38 -31 69 -70 69h-75v-139h75z" />
    <glyph glyph-name="Q" unicode="Q" horiz-adv-x="812" 
d="M707 145l27 -27c26 -25 27 -69 0 -97s-72 -29 -101 0l-29 30c-58 -38 -125 -58 -198 -58c-207 0 -376 167 -376 377c0 208 169 375 376 375s376 -167 376 -375c0 -85 -28 -163 -75 -225zM406 153c28 0 55 5 80 16l-20 20c-27 27 -26 71 0 97c28 28 71 27 100 0l26 -25
c20 31 30 69 30 109c0 119 -96 215 -216 215c-122 0 -217 -94 -217 -215c0 -122 95 -217 217 -217z" />
    <glyph glyph-name="R" unicode="R" horiz-adv-x="526" 
d="M500 121c22 -39 9 -86 -29 -109c-35 -21 -84 -15 -109 27l-142 242h-15v-201c0 -44 -36 -80 -81 -80c-43 0 -79 36 -79 80v580c0 44 36 80 79 80h156c127 0 229 -103 229 -229c0 -88 -48 -164 -120 -202zM350 511c0 38 -31 69 -70 69h-75v-139h75c39 0 70 30 70 70z" />
    <glyph glyph-name="S" unicode="S" horiz-adv-x="496" 
d="M408 78c43 47 62 109 57 170c-7 78 -54 152 -126 188c-40 20 -119 31 -135 72c-19 48 46 94 107 69c50 -20 91 -12 115 26c22 35 9 87 -29 110c-74 45 -169 42 -242 1c-70 -39 -112 -109 -113 -186c-1 -57 22 -113 62 -153c53 -53 125 -60 161 -81c44 -22 54 -75 22 -111
c-27 -30 -66 -34 -103 -22c-27 10 -51 28 -80 26c-24 -2 -47 -15 -60 -35c-24 -37 -16 -88 21 -111c100 -62 247 -70 343 37z" />
    <glyph glyph-name="T" unicode="T" horiz-adv-x="510" 
d="M414 740c45 0 81 -36 81 -80s-36 -80 -81 -80h-77v-500c0 -44 -36 -80 -79 -80c-44 0 -80 36 -80 80v500h-77c-45 0 -81 36 -81 80s36 80 81 80h313z" />
    <glyph glyph-name="U" unicode="U" horiz-adv-x="569" 
d="M287 -6c136 0 247 111 247 247v420c0 43 -36 79 -80 79c-43 0 -79 -36 -79 -79v-420c0 -48 -39 -87 -88 -87s-88 39 -88 87v420c0 43 -36 79 -79 79c-44 0 -80 -36 -80 -79v-420c0 -136 111 -247 247 -247z" />
    <glyph glyph-name="V" unicode="V" horiz-adv-x="666" 
d="M595 734c41 -17 61 -63 45 -104l-230 -579c-13 -31 -42 -51 -75 -51s-62 20 -74 51l-230 579c-17 41 3 87 45 104c41 16 87 -4 103 -45l156 -394l156 394c17 41 63 61 104 45z" />
    <glyph glyph-name="W" unicode="W" horiz-adv-x="860" 
d="M783 737c45 -12 72 -59 59 -104l-160 -571c-15 -54 -67 -70 -105 -59s-56 47 -66 83c-3 12 -42 161 -79 300c-37 -139 -76 -288 -79 -300c-9 -36 -26 -73 -65 -83c-38 -10 -89 3 -105 59l-160 571c-12 45 14 92 59 104c45 13 91 -13 104 -58l93 -330l86 325
c8 31 37 52 67 52c31 0 59 -21 68 -52l86 -325l92 330c13 45 60 71 105 58z" />
    <glyph glyph-name="X" unicode="X" horiz-adv-x="610" 
d="M405 369l170 -245c26 -35 15 -82 -19 -109c-31 -25 -85 -19 -111 19l-138 197l-138 -197c-28 -40 -79 -46 -111 -19c-33 27 -44 74 -18 109l170 245l-170 245c-26 36 -17 85 19 111c35 25 85 17 110 -19l138 -198l138 198c25 36 75 44 110 19c36 -26 46 -75 20 -111z" />
    <glyph glyph-name="Y" unicode="Y" horiz-adv-x="575" 
d="M522 725c36 -26 44 -75 19 -111l-171 -245v-290c0 -43 -36 -79 -80 -79s-79 36 -79 79v290l-171 245c-26 36 -17 85 19 111c36 25 85 17 110 -19l121 -173l121 173c25 36 74 44 111 19z" />
    <glyph glyph-name="Z" unicode="Z" horiz-adv-x="611" 
d="M510 160c44 0 80 -36 80 -81c0 -43 -36 -79 -80 -79h-405c-16 0 -31 5 -45 15c-36 25 -45 74 -19 111l325 465h-266c-41 0 -75 34 -75 75s34 74 75 74h408c17 0 35 -3 49 -14c34 -27 44 -75 19 -111l-318 -455h252z" />
    <glyph glyph-name="a" unicode="a" horiz-adv-x="582" 
d="M467 500c41 0 75 -34 75 -75v-350c0 -41 -34 -75 -75 -75c-22 0 -42 10 -56 24c-38 -20 -79 -32 -125 -32c-141 0 -256 115 -256 256s115 256 256 256c44 0 85 -12 123 -32c14 18 34 28 58 28zM286 151c54 0 97 43 97 97s-43 97 -97 97s-97 -43 -97 -97s43 -97 97 -97z
" />
    <glyph glyph-name="b" unicode="b" 
d="M296 504c141 0 256 -115 256 -256s-115 -256 -256 -256c-45 0 -88 12 -125 32c-14 -15 -33 -24 -55 -24c-43 0 -76 33 -76 76v506c0 40 34 74 74 75h8c43 0 77 -35 77 -79v-93c29 12 63 19 97 19zM296 151c53 0 97 44 97 97c0 54 -44 97 -97 97s-97 -43 -97 -97
c0 -53 44 -97 97 -97z" />
    <glyph glyph-name="c" unicode="c" horiz-adv-x="498" 
d="M286 -8c57 0 111 18 156 53c35 26 41 76 15 111c-27 35 -77 42 -112 15c-17 -13 -37 -20 -59 -20c-53 0 -97 44 -97 97s44 97 97 97c22 0 42 -7 59 -20c35 -27 85 -20 112 15c27 34 20 84 -15 111c-45 35 -99 53 -156 53c-141 0 -256 -115 -256 -256s115 -256 256 -256z
" />
    <glyph glyph-name="d" unicode="d" 
d="M15 248c0 141 115 256 256 256c34 0 67 -7 97 -19v93c0 43 34 79 78 79h7c40 -1 74 -35 74 -76v-506c0 -41 -34 -75 -76 -75c-22 0 -41 9 -55 24c-37 -20 -80 -32 -125 -32c-141 0 -256 115 -256 256zM174 248c0 -54 43 -97 97 -97s97 43 97 97s-43 97 -97 97
s-97 -43 -97 -97z" />
    <glyph glyph-name="e" unicode="e" horiz-adv-x="563" 
d="M538 280c6 -60 -34 -90 -91 -90h-266c44 -67 127 -77 191 -42c32 20 74 8 93 -24c19 -33 8 -75 -24 -94c-43 -25 -92 -38 -143 -38c-115 0 -205 65 -245 148c-31 64 -30 143 -3 208c35 85 122 156 235 156c129 0 237 -96 253 -224zM182 304h204c-9 38 -51 74 -102 74
c-50 0 -93 -36 -102 -74z" />
    <glyph glyph-name="f" unicode="f" horiz-adv-x="332" 
d="M242 412c39 0 70 -32 70 -70s-31 -69 -70 -69h-59v-194c0 -43 -35 -79 -79 -79s-79 36 -79 79v372c0 115 93 208 208 208c44 0 79 -36 79 -79c0 -44 -35 -80 -79 -80c-27 0 -50 -22 -50 -49v-39h59z" />
    <glyph glyph-name="g" unicode="g" horiz-adv-x="582" 
d="M465 503c43 0 77 -34 77 -76v-381c0 -140 -115 -254 -255 -254c-38 0 -74 8 -108 24c-38 18 -54 63 -37 101c18 39 64 55 102 37c48 -23 115 -5 139 57c-30 -12 -63 -19 -97 -19c-142 1 -256 115 -256 256s114 256 256 256c43 0 84 -11 119 -30c14 18 36 29 60 29z
M286 153c52 0 95 42 95 95s-43 96 -95 96c-53 0 -96 -43 -96 -96s43 -95 96 -95z" />
    <glyph glyph-name="h" unicode="h" horiz-adv-x="499" 
d="M262 506c123 0 222 -99 222 -222v-204c0 -44 -36 -80 -80 -80s-80 36 -80 80v204c0 34 -28 62 -62 62c-33 0 -61 -28 -61 -62v-204c0 -44 -36 -80 -80 -80c-45 0 -81 36 -81 80v505c0 45 36 81 81 81c44 0 80 -36 80 -81v-87c20 5 40 8 61 8z" />
    <glyph glyph-name="i" unicode="i" horiz-adv-x="235" 
d="M188 597c0 37 -31 68 -68 68c-38 0 -69 -31 -69 -68c0 -38 31 -69 69 -69c37 0 68 31 68 69zM120 0c44 0 80 36 80 80v346c0 44 -36 80 -80 80s-80 -36 -80 -80v-346c0 -44 36 -80 80 -80z" />
    <glyph glyph-name="j" unicode="j" horiz-adv-x="311" 
d="M260 597c0 37 -31 68 -69 68c-37 0 -68 -31 -68 -68c0 -38 31 -68 68 -68c38 0 69 30 69 68zM148 -178c78 47 123 130 123 221v382c0 44 -35 81 -80 81c-44 0 -80 -37 -80 -81v-382c0 -34 -17 -66 -47 -85c-39 -23 -50 -73 -27 -110c25 -41 78 -46 111 -26z" />
    <glyph glyph-name="k" unicode="k" horiz-adv-x="453" 
d="M416 133c31 -32 29 -81 -3 -113c-31 -31 -82 -30 -113 3l-100 104v-47c0 -44 -35 -80 -80 -80c-44 0 -80 36 -80 80v503c0 45 36 81 80 81c45 0 80 -36 80 -81v-208l90 106c29 34 79 38 113 9c34 -28 38 -79 9 -113l-107 -127z" />
    <glyph glyph-name="l" unicode="l" horiz-adv-x="230" 
d="M120 0c44 0 80 36 80 80v505c0 44 -36 80 -80 80s-80 -36 -80 -80v-505c0 -44 36 -80 80 -80z" />
    <glyph glyph-name="m" unicode="m" horiz-adv-x="793" 
d="M542 505c121 0 221 -99 221 -220v-205c0 -44 -37 -80 -80 -80s-80 36 -80 80v205c0 34 -27 61 -61 61c-33 0 -61 -27 -61 -61v-205c0 -44 -36 -80 -80 -80c-43 0 -80 36 -80 80v205c0 34 -28 61 -61 61c-34 0 -61 -27 -61 -61v-205c0 -44 -36 -80 -80 -80
c-43 0 -79 36 -79 80v344c0 43 34 76 75 76c19 0 35 -7 48 -18c29 15 62 23 97 23c53 0 103 -20 141 -51c38 31 88 51 141 51z" />
    <glyph glyph-name="n" unicode="n" horiz-adv-x="510" 
d="M260 505c122 0 220 -99 220 -220v-206c0 -43 -35 -79 -79 -79s-80 36 -80 79v206c0 34 -27 61 -61 61s-62 -27 -62 -61v-206c0 -43 -35 -79 -79 -79s-79 36 -79 79v345c0 42 33 76 75 76c18 0 35 -7 48 -17c29 14 62 22 97 22z" />
    <glyph glyph-name="o" unicode="o" horiz-adv-x="572" 
d="M286 504c141 0 256 -115 256 -256s-115 -256 -256 -256s-256 115 -256 256s115 256 256 256zM286 345c-54 0 -97 -43 -97 -97s43 -97 97 -97s97 43 97 97s-43 97 -97 97z" />
    <glyph glyph-name="p" unicode="p" 
d="M552 252c0 -141 -115 -256 -256 -256c-34 0 -67 7 -97 19v-93c0 -43 -35 -79 -79 -79h-7c-40 2 -73 35 -73 76v506c0 41 34 75 75 75c23 0 42 -9 56 -24c37 20 80 32 125 32c141 0 256 -115 256 -256zM393 252c0 54 -43 97 -97 97s-97 -43 -97 -97s43 -97 97 -97
s97 43 97 97z" />
    <glyph glyph-name="q" unicode="q" 
d="M271 -4c-141 0 -256 115 -256 256s115 256 256 256c45 0 88 -12 125 -32c14 15 33 24 55 24c42 0 76 -34 76 -75v-506c0 -41 -34 -74 -74 -76h-7c-44 0 -78 36 -78 79v93c-30 -12 -63 -19 -97 -19zM271 349c-54 0 -97 -43 -97 -97s43 -97 97 -97s97 43 97 97
s-43 97 -97 97z" />
    <glyph glyph-name="r" unicode="r" horiz-adv-x="361" 
d="M271 503c44 -1 77 -39 75 -83s-40 -75 -84 -76c-35 -1 -64 -27 -64 -61v-204c0 -44 -35 -79 -79 -79s-79 35 -79 79v346c0 41 33 75 75 75c19 0 36 -7 50 -19c41 21 86 22 106 22z" />
    <glyph glyph-name="s" unicode="s" horiz-adv-x="383" 
d="M226 368c38 -13 69 -7 87 23c25 44 -8 85 -48 101c-75 29 -166 7 -214 -58c-30 -40 -35 -95 -14 -139c29 -58 75 -83 138 -102c34 -9 26 -53 -10 -50c-21 1 -48 20 -73 21c-63 3 -101 -70 -62 -122c31 -41 108 -51 145 -49c66 4 128 41 155 103c26 60 16 136 -30 184
c-21 23 -50 40 -80 46c-15 3 -51 13 -46 33c5 22 33 15 52 9z" />
    <glyph glyph-name="t" unicode="t" horiz-adv-x="358" 
d="M257 160c44 0 80 -36 80 -80s-36 -80 -80 -80h-15c-118 0 -202 93 -202 209v370c0 44 36 80 80 80s80 -36 80 -80v-79h73c39 0 70 -31 70 -70c0 -38 -31 -69 -70 -69h-73v-152c0 -25 13 -49 42 -49h15z" />
    <glyph glyph-name="u" unicode="u" horiz-adv-x="512" 
d="M261 -8c122 0 221 99 221 221v208c0 43 -35 79 -80 79c-44 0 -79 -36 -79 -79v-208c0 -34 -28 -62 -62 -62s-62 28 -62 62v208c0 43 -35 79 -79 79c-45 0 -80 -36 -80 -79v-208c0 -122 99 -221 221 -221z" />
    <glyph glyph-name="v" unicode="v" horiz-adv-x="485" 
d="M245 0c32 0 61 20 73 50l140 340c18 42 -3 86 -44 104c-40 18 -86 -2 -104 -44l-65 -159l-66 159c-16 42 -64 62 -104 44c-41 -18 -61 -62 -44 -104l140 -340c12 -30 42 -50 74 -50z" />
    <glyph glyph-name="w" unicode="w" horiz-adv-x="770" 
d="M706 495c40 -17 60 -62 43 -103l-140 -343c-19 -46 -56 -49 -74 -49c-27 0 -59 14 -71 43l-76 188l-77 -188c-11 -27 -37 -43 -64 -43c-18 0 -62 3 -81 49l-140 343c-17 41 3 86 43 103c41 17 87 -2 103 -43l78 -191l73 178c11 27 37 43 65 43c27 0 53 -16 64 -43
l73 -178l78 191c16 41 63 60 103 43z" />
    <glyph glyph-name="x" unicode="x" horiz-adv-x="492" 
d="M453 131c28 -34 23 -83 -10 -112c-32 -28 -83 -26 -112 9l-83 99l-82 -99c-29 -35 -81 -38 -112 -9c-33 30 -39 78 -10 112l101 120l-101 121c-28 34 -24 84 10 112c33 28 83 24 112 -10l82 -99l83 99c28 34 78 38 112 10c33 -28 38 -78 10 -112l-101 -121z" />
    <glyph glyph-name="y" unicode="y" horiz-adv-x="526" 
d="M447 496c41 -17 60 -63 43 -104l-154 -378c-14 -35 -28 -69 -47 -98c-41 -62 -117 -106 -201 -106c-30 0 -74 20 -73 71c0 39 32 69 70 69c44 -1 82 23 99 63l15 35l-142 344c-16 41 4 87 44 104c41 17 88 -3 104 -43l69 -168l68 168c18 40 63 61 105 43z" />
    <glyph glyph-name="z" unicode="z" horiz-adv-x="490" 
d="M390 159c44 0 80 -36 80 -79c0 -44 -36 -80 -80 -80h-284c-43 0 -79 36 -80 78c0 18 6 38 19 53l183 220h-128c-42 0 -75 33 -75 74s33 75 75 75h289c19 0 37 -6 52 -19c34 -28 38 -78 10 -112l-176 -210h115z" />
    <glyph glyph-name="zero" unicode="0" horiz-adv-x="588" 
d="M294 -6c138 0 249 112 249 249v254c0 137 -111 249 -249 249c-136 0 -249 -112 -249 -249v-254c0 -137 113 -249 249 -249zM204 497c0 49 40 91 90 91s90 -42 90 -91v-254c0 -49 -40 -91 -90 -91s-90 42 -90 91v254z" />
    <glyph glyph-name="one" unicode="1" horiz-adv-x="371" 
d="M235 740c42 0 76 -37 76 -80v-580c0 -44 -36 -80 -80 -80s-80 36 -80 80v520h-56c-38 0 -70 31 -70 70c0 38 32 70 70 70h140z" />
    <glyph glyph-name="two" unicode="2" 
d="M442 161c45 0 81 -36 81 -80c0 -45 -36 -81 -81 -81h-312c-61 0 -107 73 -63 128l264 324c31 38 26 94 -13 126c-37 31 -94 25 -126 -13c-26 -32 -73 -37 -106 -11c-32 27 -37 75 -11 106c85 103 238 120 340 34c104 -87 122 -231 33 -339l-159 -194h153z" />
    <glyph glyph-name="three" unicode="3" horiz-adv-x="553" 
d="M428 415c46 -45 75 -107 75 -176c0 -135 -110 -245 -245 -245c-87 0 -168 46 -212 121c-22 38 -9 87 28 109c38 22 87 10 109 -28c43 -73 161 -49 161 43c0 34 -21 64 -52 78c-20 9 -39 5 -58 11c-34 10 -58 42 -58 77c0 41 28 75 71 78c36 2 60 17 60 53
c0 41 -47 66 -81 42c-36 -25 -86 -16 -111 20s-17 84 19 110c127 92 332 13 332 -172c0 -45 -14 -87 -38 -121z" />
    <glyph glyph-name="four" unicode="4" horiz-adv-x="623" 
d="M583 206c0 -41 -33 -74 -74 -74v-53c0 -44 -36 -79 -79 -79c-44 0 -80 35 -80 79v53h-238c-36 1 -59 25 -67 49c-9 27 -3 51 16 78c6 8 285 421 296 437c18 25 41 44 73 44c43 0 79 -35 79 -79v-381c41 0 74 -33 74 -74zM243 280h107v158z" />
    <glyph glyph-name="five" unicode="5" horiz-adv-x="578" 
d="M270 520c145 0 263 -117 263 -263c0 -145 -118 -263 -263 -263c-82 0 -157 38 -208 102c-28 36 -21 85 15 113c35 26 84 20 111 -15c57 -74 186 -38 186 63c0 57 -46 104 -104 104c-23 0 -44 -8 -62 -21c-36 -28 -86 -21 -112 14c-15 19 -19 43 -15 65l37 253
c5 39 40 68 79 68h222c44 0 79 -36 79 -79c0 -45 -35 -81 -79 -81h-154l-9 -60h14z" />
    <glyph glyph-name="six" unicode="6" horiz-adv-x="616" 
d="M352 517c129 -16 229 -127 229 -260c0 -145 -118 -263 -263 -263c-144 0 -263 118 -263 263c0 43 11 87 30 121l191 322c23 38 72 51 109 29s50 -72 28 -110zM318 153c58 0 104 47 104 104c0 56 -46 104 -104 104c-57 0 -103 -49 -103 -104c0 -57 46 -104 103 -104z" />
    <glyph glyph-name="seven" unicode="7" horiz-adv-x="522" 
d="M487 631l-224 -580c-19 -49 -65 -57 -103 -46c-42 12 -61 63 -45 104l181 471h-180c-45 0 -81 36 -81 80s36 80 81 80h295c52 0 100 -48 76 -109z" />
    <glyph glyph-name="eight" unicode="8" horiz-adv-x="581" 
d="M455 410c47 -44 76 -107 76 -175c0 -133 -108 -241 -241 -241c-132 0 -240 108 -240 241c0 68 29 131 76 175c-27 35 -44 79 -44 128c0 115 94 208 208 208c115 0 209 -93 209 -208c0 -49 -17 -93 -44 -128zM290 596c-32 0 -58 -26 -58 -58c0 -33 26 -59 58 -59
c33 0 59 26 59 59c0 32 -26 58 -59 58zM290 144c51 0 91 40 91 91c0 49 -40 91 -91 91c-50 0 -90 -42 -90 -91c0 -51 40 -91 90 -91z" />
    <glyph glyph-name="nine" unicode="9" horiz-adv-x="586" 
d="M264 223c-129 17 -229 128 -229 261c0 146 118 263 263 263c146 0 263 -117 263 -263c0 -43 -6 -85 -28 -121l-193 -324c-22 -38 -71 -51 -109 -28c-38 22 -50 71 -27 109zM298 588c-57 0 -104 -47 -104 -104s47 -104 104 -104c62 0 105 50 105 104
c0 57 -47 104 -105 104z" />
    <glyph glyph-name="fraction" unicode="&#x2044;" horiz-adv-x="542" 
d="M131 28l388 623c18 29 9 67 -19 83s-64 8 -82 -20l-388 -624c-18 -28 -8 -66 20 -82c23 -13 63 -9 81 20z" />
    <glyph glyph-name="onehalf" unicode="&#xbd;" horiz-adv-x="861" 
d="M243 28l388 623c16 29 8 65 -19 83c-28 16 -66 8 -82 -20l-388 -624c-18 -28 -11 -64 20 -82c23 -14 63 -10 81 20zM226 684v-334c0 -30 -24 -56 -54 -56s-54 26 -54 56v293h-24c-28 0 -49 21 -49 47c0 28 21 50 49 50h78c32 0 54 -26 54 -56zM753 109
c30 0 53 -23 53 -53s-23 -56 -53 -56h-179c-16 0 -29 7 -40 18c-25 26 -12 60 2 77l147 180c14 18 11 44 -8 59c-16 13 -41 15 -59 -6c-10 -12 -24 -20 -40 -20c-41 0 -71 48 -40 86c55 66 143 70 205 20c63 -50 73 -143 22 -205l-82 -100h72z" />
    <glyph glyph-name="onequarter" unicode="&#xbc;" horiz-adv-x="774" 
d="M242 28l388 623c18 29 10 65 -18 83c-28 16 -66 8 -84 -20l-388 -624c-17 -27 -10 -66 20 -82c28 -15 63 -10 82 20zM174 740c30 0 52 -26 52 -56v-334c0 -30 -24 -56 -54 -56c-32 0 -56 26 -56 56v293h-23c-26 0 -48 21 -48 47c0 28 22 50 48 50h81zM687 175
c24 -2 42 -24 42 -48s-18 -45 -42 -47v-26c0 -28 -23 -52 -51 -52s-50 24 -50 52v26h-135c-45 0 -60 36 -42 67c8 14 177 263 181 269c12 18 28 26 46 26c28 0 51 -22 51 -50v-217zM586 247l-50 -72h50v72z" />
    <glyph glyph-name="threequarters" unicode="&#xbe;" horiz-adv-x="808" 
d="M291 609c0 -24 -6 -48 -20 -67c28 -28 42 -66 42 -103c0 -84 -68 -152 -150 -152c-54 0 -102 31 -130 76c-16 26 -8 58 20 74c20 11 44 10 60 -4c10 -8 16 -21 26 -28c20 -14 50 -6 60 14c10 18 4 40 -10 51c-18 12 -40 8 -56 20c-16 10 -26 30 -26 48c0 27 23 48 46 49
c19 1 35 11 30 30c-4 14 -22 18 -34 10c-22 -15 -52 -10 -72 10c-15 15 -17 41 -6 61c17 30 58 42 92 42c70 0 128 -58 128 -131zM289 26l385 621c18 29 10 65 -18 83c-28 16 -66 8 -82 -20l-385 -622c-18 -29 -9 -66 18 -82c24 -14 65 -7 82 20zM687 175
c24 -2 42 -24 42 -48s-18 -45 -42 -47v-26c0 -28 -23 -52 -51 -52s-50 24 -50 52v26h-135c-45 0 -60 36 -42 67c8 14 177 263 181 269c12 18 28 26 46 26c28 0 51 -22 51 -50v-217zM586 247l-50 -72h50v72z" />
    <glyph glyph-name="uni00B9" unicode="&#xb9;" horiz-adv-x="241" 
d="M144 740c30 0 52 -26 52 -56v-334c0 -30 -24 -56 -54 -56c-32 0 -56 26 -56 56v293h-23c-26 0 -48 21 -48 47c0 28 22 50 48 50h81z" />
    <glyph glyph-name="uni00B2" unicode="&#xb2;" horiz-adv-x="356" 
d="M273 401c30 0 53 -23 53 -53s-23 -56 -53 -56h-179c-16 0 -29 7 -40 18c-25 26 -12 60 2 77l147 180c14 18 11 44 -8 59c-16 13 -41 15 -59 -6c-10 -12 -24 -20 -40 -20c-41 0 -71 48 -40 86c55 66 143 70 205 20c63 -50 73 -143 22 -205l-82 -100h72z" />
    <glyph glyph-name="uni00B3" unicode="&#xb3;" horiz-adv-x="353" 
d="M291 609c0 -24 -6 -48 -20 -67c28 -28 42 -66 42 -103c0 -84 -68 -152 -150 -152c-54 0 -102 31 -130 76c-16 26 -8 58 20 74c20 11 44 10 60 -4c10 -8 16 -21 26 -28c20 -14 50 -6 60 14c10 18 4 40 -10 51c-18 12 -40 8 -56 20c-16 10 -26 30 -26 48c0 27 23 48 46 49
c19 1 35 11 30 30c-4 14 -22 18 -34 10c-22 -15 -52 -10 -72 10c-15 15 -17 41 -6 61c17 30 58 42 92 42c70 0 128 -58 128 -131z" />
    <glyph glyph-name="uni2074" unicode="&#x2074;" horiz-adv-x="377" 
d="M310 473c24 -2 42 -24 42 -48s-18 -45 -42 -47v-26c0 -28 -23 -52 -51 -52s-50 24 -50 52v26h-135c-45 0 -60 36 -42 67c8 14 177 263 181 269c12 18 28 26 46 26c28 0 51 -22 51 -50v-217zM209 545l-50 -72h50v72z" />
    <glyph glyph-name="asterisk" unicode="*" horiz-adv-x="473" 
d="M404 572c25 0 44 -19 44 -44c0 -24 -19 -44 -44 -44h-62l45 -43c16 -18 17 -45 0 -62c-18 -18 -45 -17 -62 0l-44 43v-62c0 -24 -20 -44 -44 -44s-44 20 -44 44v62l-44 -43c-17 -17 -43 -17 -61 0s-17 45 0 62l43 43h-62c-24 0 -44 20 -44 44c0 25 20 44 44 44h62l-43 44
c-18 17 -18 45 0 62c16 17 44 17 61 0l44 -44v62c0 24 20 44 44 44s44 -20 44 -44v-62l44 44c17 17 45 17 62 0c16 -17 16 -45 0 -62l-45 -44h62z" />
    <glyph glyph-name="backslash" unicode="\" horiz-adv-x="395" 
d="M342 4c30 12 45 47 34 77l-240 621c-12 32 -47 47 -78 35c-30 -12 -46 -46 -34 -77l241 -622c15 -38 56 -42 77 -34z" />
    <glyph glyph-name="bullet" unicode="&#x2022;" horiz-adv-x="345" 
d="M315 246c0 80 -65 142 -143 142s-142 -62 -142 -142c0 -78 64 -140 142 -140s143 62 143 140z" />
    <glyph glyph-name="colon" unicode=":" horiz-adv-x="190" 
d="M160 433c0 37 -31 67 -68 67s-67 -30 -67 -67c0 -38 30 -68 67 -68s68 30 68 68zM160 67c0 38 -31 68 -68 68s-67 -30 -67 -68c0 -37 30 -67 67 -67s68 30 68 67z" />
    <glyph glyph-name="comma" unicode="," horiz-adv-x="198" 
d="M144 -62l23 98c9 40 -24 80 -66 77c-27 -2 -51 -22 -57 -49l-22 -98c-6 -24 4 -50 23 -64c32 -24 89 -10 99 36z" />
    <glyph glyph-name="exclam" unicode="!" horiz-adv-x="228" 
d="M114 180c44 0 79 36 79 79v402c0 43 -35 79 -79 79s-79 -36 -79 -79v-402c0 -43 35 -79 79 -79zM187 73c0 40 -33 73 -73 73s-73 -33 -73 -73s33 -73 73 -73s73 33 73 73z" />
    <glyph glyph-name="exclamdown" unicode="&#xa1;" horiz-adv-x="229" 
d="M42 667c0 -40 33 -73 73 -73s73 33 73 73s-33 73 -73 73s-73 -33 -73 -73zM115 0c43 0 79 36 79 79v402c0 43 -36 79 -79 79c-44 0 -80 -36 -80 -79v-402c0 -43 36 -79 80 -79z" />
    <glyph glyph-name="numbersign" unicode="#" horiz-adv-x="707" 
d="M628 429h-78l-21 -111h50c33 0 60 -26 60 -59c0 -34 -27 -60 -60 -60h-73l-28 -150c-8 -41 -42 -53 -71 -48c-32 6 -53 38 -48 70l26 128h-119l-29 -150c-8 -42 -50 -52 -70 -48c-33 6 -54 38 -48 70l25 128h-60c-32 0 -59 26 -59 60c0 33 27 59 59 59h83l21 111h-55
c-33 0 -60 26 -60 59s27 60 60 60h78l29 144c6 33 37 54 70 48c32 -7 53 -38 47 -70l-23 -122h118l28 144c6 33 38 54 69 48c33 -7 54 -38 48 -70l-23 -122h54c32 0 59 -27 59 -60s-27 -59 -59 -59zM408 318l21 111h-118l-22 -111h119z" />
    <glyph glyph-name="period" unicode="." horiz-adv-x="193" 
d="M168 72c0 39 -32 71 -72 71c-39 0 -71 -32 -71 -71c0 -40 32 -72 71 -72c40 0 72 32 72 72z" />
    <glyph glyph-name="question" unicode="?" horiz-adv-x="487" 
d="M311 307c85 32 146 113 146 210c0 122 -101 223 -224 223c-91 0 -171 -53 -207 -137c-17 -40 2 -86 43 -104c40 -17 86 2 104 43c24 64 126 47 126 -25c0 -37 -30 -66 -66 -66c-28 0 -53 -15 -67 -38s-13 -46 -13 -71v-86c0 -43 36 -79 80 -79c43 0 78 36 78 79v51z
M311 72c0 40 -32 73 -72 73s-72 -33 -72 -73s32 -72 72 -72s72 32 72 72z" />
    <glyph glyph-name="questiondown" unicode="&#xbf;" horiz-adv-x="489" 
d="M177 667c0 -40 33 -73 73 -73s73 33 73 73s-33 73 -73 73s-73 -33 -73 -73zM30 219c0 97 60 180 146 211v52c0 43 36 79 80 79c43 0 79 -36 79 -79v-86c0 -26 1 -49 -12 -72c-14 -24 -41 -38 -68 -38c-36 0 -66 -30 -66 -67c0 -73 102 -88 127 -25c17 41 64 60 105 43
c40 -18 59 -64 42 -105c-36 -84 -117 -138 -208 -138c-125 0 -225 101 -225 225z" />
    <glyph glyph-name="quotedbl" unicode="&#x22;" horiz-adv-x="377" 
d="M54 565l-22 98c-10 41 24 80 65 77c28 -2 51 -22 58 -49l22 -98c5 -24 -4 -52 -23 -65c-34 -23 -88 -10 -100 37zM228 565l-23 98c-9 41 24 80 66 77c27 -2 51 -22 57 -49l23 -98c6 -24 -4 -52 -24 -65c-34 -22 -89 -8 -99 37z" />
    <glyph glyph-name="quotesingle" unicode="'" horiz-adv-x="203" 
d="M54 565l-22 98c-10 41 24 80 65 77c28 -2 51 -22 58 -49l22 -98c5 -24 -4 -52 -23 -65c-34 -23 -88 -10 -100 37z" />
    <glyph glyph-name="semicolon" unicode=";" horiz-adv-x="205" 
d="M175 429c0 39 -32 71 -72 71c-39 0 -71 -32 -71 -71c0 -40 32 -72 71 -72c40 0 72 32 72 72zM149 -62l23 98c9 40 -24 80 -66 77c-27 -2 -51 -22 -57 -49l-22 -98c-6 -24 4 -50 23 -64c32 -24 89 -10 99 36z" />
    <glyph glyph-name="slash" unicode="/" horiz-adv-x="395" 
d="M130 38l240 622c13 31 -3 65 -34 77c-30 12 -65 -3 -77 -35l-240 -621c-12 -30 3 -65 34 -77c24 -9 64 -1 77 34z" />
    <glyph glyph-name="underscore" unicode="_" horiz-adv-x="569" 
d="M497 -113c30 0 57 25 57 57s-27 56 -57 56h-425c-32 0 -57 -24 -57 -56s25 -57 57 -57h425z" />
    <glyph glyph-name="braceleft" unicode="{" horiz-adv-x="462" 
d="M372 0c38 0 70 -32 70 -70c0 -40 -32 -70 -70 -70h-10c-106 0 -192 86 -192 192v123c0 30 -24 54 -54 54h-16c-42 0 -71 32 -71 70s29 70 71 70h16c30 0 54 24 54 54v123c0 106 86 194 192 194h10c38 0 70 -32 70 -70c0 -40 -32 -70 -70 -70h-10c-28 0 -52 -24 -52 -54
v-123c0 -46 -18 -90 -46 -124c28 -34 46 -76 46 -124v-123c0 -28 24 -52 52 -52h10z" />
    <glyph glyph-name="braceright" unicode="}" horiz-adv-x="462" 
d="M90 0c-38 0 -70 -32 -70 -70c0 -40 32 -70 70 -70h10c106 0 191 86 191 192v123c0 30 24 54 54 54h16c43 0 70 32 70 70s-29 70 -70 70h-16c-30 0 -54 24 -54 54v123c0 106 -85 194 -191 194h-10c-38 0 -70 -32 -70 -70c0 -40 32 -70 70 -70h10c28 0 52 -24 52 -54v-123
c0 -46 18 -90 46 -124c-28 -34 -46 -76 -46 -124v-123c0 -28 -24 -52 -52 -52h-10z" />
    <glyph glyph-name="bracketleft" unicode="[" horiz-adv-x="307" 
d="M207 -140c38 0 70 32 70 70s-32 70 -70 70h-22v600h22c38 0 70 32 70 70s-32 70 -70 70h-92c-38 0 -70 -32 -70 -70v-740c0 -38 32 -70 70 -70h92z" />
    <glyph glyph-name="bracketright" unicode="]" horiz-adv-x="307" 
d="M192 -140c38 0 70 32 70 70v740c0 38 -32 70 -70 70h-92c-38 0 -70 -32 -70 -70s32 -70 70 -70h22v-600h-22c-38 0 -70 -32 -70 -70s32 -70 70 -70h92z" />
    <glyph glyph-name="parenleft" unicode="(" horiz-adv-x="305" 
d="M248 -49c30 20 41 63 21 94c-57 86 -86 190 -86 294c0 106 29 206 86 295c20 31 12 74 -21 94s-75 13 -95 -19c-71 -110 -108 -239 -108 -370s36 -258 108 -368c23 -35 65 -40 95 -20z" />
    <glyph glyph-name="parenright" unicode=")" horiz-adv-x="306" 
d="M152 -29c68 112 109 237 109 368c0 132 -38 260 -109 370c-21 32 -63 41 -95 20s-41 -63 -21 -95c56 -88 87 -190 87 -295c0 -104 -31 -206 -86 -294c-20 -32 -12 -74 21 -95c29 -19 72 -15 94 21z" />
    <glyph glyph-name="endash" unicode="&#x2013;" horiz-adv-x="733" 
d="M616 223c42 0 77 34 77 77c0 42 -35 77 -77 77h-499c-43 0 -77 -35 -77 -77c0 -43 34 -77 77 -77h499z" />
    <glyph glyph-name="hyphen" unicode="-" horiz-adv-x="415" 
d="M303 223c42 0 77 34 77 77c0 42 -35 77 -77 77h-191c-42 0 -77 -35 -77 -77c0 -43 35 -77 77 -77h191z" />
    <glyph glyph-name="guillemotleft" unicode="&#xab;" horiz-adv-x="550" 
d="M268 82c26 27 26 70 0 97l-73 73l73 73c26 26 26 69 0 96c-27 27 -70 27 -96 0l-122 -121c-27 -29 -28 -68 0 -96l122 -122c27 -27 69 -28 96 0zM505 82c26 27 26 70 0 97l-73 73l73 73c26 26 26 69 0 96c-27 27 -70 27 -96 0l-122 -121c-27 -29 -28 -68 0 -96l122 -122
c27 -27 69 -28 96 0z" />
    <glyph glyph-name="guillemotright" unicode="&#xbb;" horiz-adv-x="549" 
d="M141 82l121 122c28 25 27 69 0 96l-121 121c-27 27 -70 27 -96 0c-27 -27 -27 -70 0 -96l73 -73l-73 -73c-27 -27 -27 -70 0 -97c25 -25 71 -25 96 0zM378 82l121 122c28 25 27 69 0 96l-121 121c-26 27 -70 27 -96 0c-27 -27 -27 -70 0 -96l73 -73l-73 -73
c-27 -27 -27 -70 0 -97c25 -25 71 -25 96 0z" />
    <glyph glyph-name="guilsinglleft" unicode="&#x2039;" horiz-adv-x="313" 
d="M268 83c26 26 26 70 0 96l-73 73l73 73c26 28 26 70 0 96c-27 27 -70 27 -97 0l-121 -120c-28 -28 -27 -68 0 -97l121 -121c28 -27 70 -27 97 0z" />
    <glyph glyph-name="guilsinglright" unicode="&#x203a;" horiz-adv-x="312" 
d="M141 83l121 121c28 28 27 69 0 96l-121 121c-27 27 -70 27 -96 0c-27 -26 -27 -69 0 -96l73 -73l-73 -73c-27 -26 -27 -70 0 -96c28 -27 69 -27 96 0z" />
    <glyph glyph-name="quotedblbase" unicode="&#x201e;" horiz-adv-x="376" 
d="M149 -62l23 98c9 41 -24 80 -66 77c-27 -2 -51 -22 -57 -49l-23 -98c-5 -24 4 -50 24 -64c32 -23 89 -10 99 36zM323 -62l22 98c10 41 -24 80 -65 77c-28 -2 -52 -22 -58 -49l-22 -98c-5 -24 4 -50 23 -64c32 -24 88 -10 100 36z" />
    <glyph glyph-name="quotedblleft" unicode="&#x201c;" horiz-adv-x="377" 
d="M54 565l-22 98c-10 41 24 80 65 77c28 -2 51 -22 58 -49l22 -98c5 -24 -4 -52 -23 -65c-34 -23 -88 -10 -100 37zM228 565l-23 98c-9 41 24 80 66 77c27 -2 51 -22 57 -49l23 -98c6 -24 -4 -52 -24 -65c-34 -22 -89 -8 -99 37z" />
    <glyph glyph-name="quotedblright" unicode="&#x201d;" horiz-adv-x="377" 
d="M149 565l23 98c9 41 -24 80 -66 77c-27 -2 -51 -22 -57 -49l-23 -98c-5 -24 4 -50 24 -64c33 -23 89 -11 99 36zM323 565l22 98c10 41 -24 80 -65 77c-28 -2 -52 -22 -58 -49l-22 -98c-5 -24 4 -50 23 -64c32 -24 88 -11 100 36z" />
    <glyph glyph-name="quoteleft" unicode="&#x2018;" horiz-adv-x="203" 
d="M54 565l-23 98c-9 41 25 80 66 77c28 -2 51 -22 57 -49l23 -98c5 -24 -4 -50 -23 -65c-32 -26 -88 -10 -100 37z" />
    <glyph glyph-name="quoteright" unicode="&#x2019;" horiz-adv-x="203" 
d="M149 565l23 98c9 41 -24 80 -66 77c-27 -2 -51 -22 -57 -49l-23 -98c-5 -24 4 -50 24 -65c32 -24 89 -10 99 37z" />
    <glyph glyph-name="cent" unicode="&#xa2;" horiz-adv-x="499" 
d="M361 182c34 15 74 6 95 -25c28 -33 22 -83 -13 -112c-25 -18 -52 -31 -82 -41v-54c0 -37 -28 -66 -64 -66s-66 29 -66 66v50c-115 23 -201 128 -201 249c0 123 86 227 201 251v42c0 37 30 66 66 66s64 -29 64 -66v-46c30 -10 57 -24 82 -41c35 -29 41 -79 15 -114
c-23 -31 -63 -39 -97 -24v-135zM189 249c0 -32 16 -61 42 -80v162c-26 -18 -42 -48 -42 -82z" />
    <glyph glyph-name="dollar" unicode="$" horiz-adv-x="493" 
d="M462 249c0 -109 -62 -200 -151 -236v-58c0 -35 -29 -64 -65 -64c-35 0 -64 29 -64 64v45c-42 7 -86 22 -117 44c-36 24 -46 73 -22 110c14 20 36 33 60 34c29 3 53 -16 80 -25c36 -13 78 -9 102 21c28 36 23 88 -22 111s-101 21 -160 80c-40 40 -62 95 -61 152
c1 77 43 147 112 185c9 5 18 9 28 13v51c0 36 29 64 64 64c36 0 65 -28 65 -64v-36c29 -4 58 -12 83 -30c64 -46 41 -128 -20 -144c-23 -6 -43 1 -65 10c-63 26 -124 -17 -106 -69c13 -39 101 -59 134 -72c72 -29 125 -108 125 -186z" />
    <glyph glyph-name="Euro" unicode="&#x20ac;" horiz-adv-x="681" 
d="M552 163c42 13 87 -11 100 -53s-11 -87 -53 -99c-162 -49 -369 11 -455 208h-50c-35 0 -64 29 -64 65s29 65 64 65h19c-1 7 -1 14 -1 21c0 8 0 14 1 21h-19c-35 0 -64 29 -64 65s29 65 64 65h50c86 197 292 259 455 208c42 -13 66 -57 53 -99s-58 -66 -100 -53
c-68 20 -155 9 -218 -56h124c35 0 64 -29 64 -65s-29 -65 -64 -65h-185c-1 -7 -1 -14 -1 -21s0 -14 1 -21h185c35 0 64 -29 64 -65s-29 -65 -64 -65h-124c63 -65 150 -76 218 -56z" />
    <glyph glyph-name="florin" unicode="&#x192;" horiz-adv-x="444" 
d="M356 414c39 0 68 -32 68 -70c0 -39 -29 -70 -68 -70h-58v-268c0 -108 -88 -194 -195 -194c-43 0 -78 37 -78 80c0 44 35 81 78 81c19 0 35 13 35 33v444c0 117 93 211 208 211c43 0 78 -37 78 -80c0 -44 -35 -81 -78 -81c-27 0 -48 -21 -48 -50v-36h58z" />
    <glyph glyph-name="sterling" unicode="&#xa3;" horiz-adv-x="600" 
d="M500 287c41 0 75 -34 75 -75v-15c0 -113 -93 -197 -205 -197h-257c-41 0 -75 34 -75 75s34 75 75 75h60v105c0 15 -4 29 -11 41h-66c-33 0 -61 28 -61 61c0 26 18 49 43 57c-35 57 -46 137 -5 214c37 71 109 117 192 118c88 1 174 -40 221 -116c22 -35 12 -82 -23 -104
c-36 -21 -82 -11 -104 24c-18 29 -54 47 -90 46c-51 -3 -82 -47 -69 -90c12 -36 47 -72 62 -89h116c33 0 60 -28 60 -60c0 -33 -27 -61 -60 -61h-59c2 -12 3 -25 4 -39v-107h47c38 0 55 24 55 47v15c0 41 33 75 75 75z" />
    <glyph glyph-name="yen" unicode="&#xa5;" horiz-adv-x="577" 
d="M477 369h-106v-33h106c39 0 69 -31 69 -69c0 -39 -30 -70 -69 -70h-106v-118c0 -43 -36 -79 -81 -79c-43 0 -79 36 -79 79v118h-107c-38 0 -69 31 -69 70c0 38 31 69 69 69h107v33h-107c-38 0 -69 31 -69 70c0 38 31 69 69 69h11l-75 108c-26 36 -17 85 19 111
c36 25 86 17 111 -19l120 -174l122 174c25 36 74 44 111 19c36 -26 45 -75 19 -111l-75 -108h10c39 0 69 -31 69 -69c0 -39 -30 -70 -69 -70z" />
    <glyph glyph-name="approxequal" unicode="&#x2248;" horiz-adv-x="621" 
d="M557 323c28 19 36 56 17 84c-16 28 -52 36 -82 17c-31 -19 -106 -42 -166 -21c-96 34 -194 28 -248 7c-31 -10 -45 -45 -35 -75c13 -31 47 -49 79 -35c24 9 93 18 166 -10c88 -34 198 -15 269 33zM558 161c28 19 37 55 18 83c-16 28 -53 37 -82 20
c-32 -21 -107 -44 -166 -23c-96 33 -194 30 -248 9c-32 -12 -45 -46 -35 -77c12 -32 47 -47 79 -35c24 9 94 14 166 -11c94 -32 194 -16 268 34z" />
    <glyph glyph-name="asciitilde" unicode="~" horiz-adv-x="857" 
d="M174 128c17 20 16 43 28 64c43 75 135 34 187 -1c200 -134 376 -58 429 129c12 42 -15 86 -56 94c-47 9 -80 -21 -98 -68c-35 -92 -106 -85 -188 -27c-137 93 -239 78 -301 50c-82 -37 -127 -117 -135 -179c-5 -42 25 -81 68 -86c16 -2 47 2 66 24z" />
    <glyph glyph-name="divide" unicode="&#xf7;" horiz-adv-x="583" 
d="M366 463c0 40 -32 72 -72 72c-39 0 -71 -32 -71 -72c0 -39 32 -69 71 -69c40 0 72 30 72 69zM496 225c36 0 67 30 67 67s-31 68 -67 68h-403c-37 0 -68 -31 -68 -68s31 -67 68 -67h403zM366 119c0 41 -32 72 -72 72c-39 0 -71 -31 -71 -72c0 -39 32 -70 71 -70
c40 0 72 31 72 70z" />
    <glyph glyph-name="equal" unicode="=" horiz-adv-x="610" 
d="M507 295c38 0 68 30 68 67s-30 68 -68 68h-399c-38 0 -68 -31 -68 -68s30 -67 68 -67h399zM507 128c38 0 68 31 68 68s-30 68 -68 68h-399c-38 0 -68 -31 -68 -68s30 -68 68 -68h399z" />
    <glyph glyph-name="greater" unicode="&#x3e;" horiz-adv-x="488" 
d="M131 10l286 183c40 26 41 89 0 115l-286 182c-34 21 -75 11 -96 -20c-19 -33 -10 -74 21 -96l197 -124l-197 -123c-32 -20 -40 -63 -21 -96c22 -38 65 -41 96 -21z" />
    <glyph glyph-name="greaterequal" unicode="&#x2265;" horiz-adv-x="548" 
d="M126 157l335 119c57 20 58 99 0 120l-335 119c-34 12 -71 -6 -83 -39s6 -69 39 -80l167 -61l-167 -59c-33 -12 -51 -49 -39 -80c16 -43 52 -47 83 -39zM443 0c35 0 65 27 65 63c0 35 -30 64 -65 64h-343c-35 0 -65 -29 -65 -64c0 -36 30 -63 65 -63h343z" />
    <glyph glyph-name="uni2206" unicode="&#x2206;" horiz-adv-x="620" 
d="M521 0c48 0 82 50 65 95l-208 598c-9 28 -36 47 -65 47c-30 0 -56 -19 -66 -47l-208 -601c-17 -45 17 -92 65 -92h417zM202 139l111 319l110 -319h-221z" />
    <glyph glyph-name="infinity" unicode="&#x221e;" horiz-adv-x="899" 
d="M666 471c114 0 208 -96 208 -212c0 -118 -94 -212 -208 -212c-87 0 -164 59 -214 108c-50 -49 -127 -108 -214 -108c-114 0 -208 94 -208 212c0 116 94 212 208 212c87 0 164 -59 214 -108c50 49 127 108 214 108zM238 182c42 0 91 39 127 77c-36 38 -85 77 -127 77
c-40 0 -73 -33 -73 -77s33 -77 73 -77zM666 182c40 0 73 33 73 77s-33 77 -73 77c-42 0 -91 -39 -127 -77c36 -38 85 -77 127 -77z" />
    <glyph glyph-name="integral" unicode="&#x222b;" horiz-adv-x="434" 
d="M94 -190c103 0 186 84 186 186v541c0 35 29 62 64 62c38 0 70 32 70 71s-32 70 -70 70c-113 0 -203 -91 -203 -203v-541c0 -25 -21 -45 -47 -45c-38 0 -69 -32 -69 -71s31 -70 69 -70z" />
    <glyph glyph-name="less" unicode="&#x3c;" horiz-adv-x="488" 
d="M453 31c20 33 10 74 -21 96l-197 123l197 124c31 22 41 63 21 96c-19 31 -62 41 -93 20l-289 -182c-41 -26 -41 -89 0 -115l289 -183c30 -19 72 -13 93 21z" />
    <glyph glyph-name="lessequal" unicode="&#x2264;" horiz-adv-x="547" 
d="M504 195c12 33 -5 69 -39 81l-166 60l166 60c34 12 51 46 39 80c-11 34 -50 51 -82 39l-335 -119c-56 -20 -56 -100 0 -120l335 -119c30 -11 67 -3 82 38zM449 0c36 0 63 27 63 62c0 36 -27 65 -63 65h-344c-36 0 -65 -29 -65 -65c0 -35 29 -62 65 -62h344z" />
    <glyph glyph-name="logicalnot" unicode="&#xac;" horiz-adv-x="795" 
d="M678 12c42 0 77 34 77 77v211c0 42 -35 77 -77 77h-581c-43 0 -77 -35 -77 -77c0 -43 34 -77 77 -77h504v-134c0 -43 35 -77 77 -77z" />
    <glyph glyph-name="notequal" unicode="&#x2260;" horiz-adv-x="610" 
d="M507 280c38 0 68 -30 68 -68c0 -37 -30 -67 -68 -67h-207l-56 -113c-16 -33 -50 -39 -77 -26c-29 14 -42 49 -27 78l31 61h-63c-38 0 -68 30 -68 67c0 38 30 68 68 68h129l16 31h-145c-38 0 -68 30 -68 68c0 37 30 67 68 67h211l52 104c15 29 49 41 77 27
c29 -14 41 -49 27 -78l-26 -53h58c38 0 68 -30 68 -67c0 -38 -30 -68 -68 -68h-125l-15 -31h140z" />
    <glyph glyph-name="partialdiff" unicode="&#x2202;" horiz-adv-x="578" 
d="M538 258c0 -69 -13 -119 -60 -174c-48 -56 -120 -90 -194 -90c-140 0 -254 114 -254 254s114 254 254 254c33 0 65 -7 94 -19c-6 55 -53 98 -109 98h-45c-44 0 -79 36 -79 80c0 43 35 79 79 79h45c148 0 268 -120 268 -268zM284 153c52 0 95 42 95 95c0 52 -43 95 -95 95
c-53 0 -95 -43 -95 -95c0 -53 42 -95 95 -95z" />
    <glyph glyph-name="percent" unicode="%" horiz-adv-x="822" 
d="M302 32l326 623c15 29 5 64 -23 79c-30 16 -67 5 -82 -23l-326 -624c-15 -29 -3 -66 25 -80c26 -13 63 -7 80 25zM204 393c95 0 175 77 175 175c0 95 -80 175 -175 175c-97 0 -174 -80 -174 -175c0 -98 77 -175 174 -175zM204 623c30 0 56 -26 56 -55
c0 -32 -26 -56 -56 -56s-55 24 -55 56c0 29 25 55 55 55zM623 0c95 0 174 77 174 175c0 94 -79 174 -174 174c-98 0 -175 -80 -175 -174c0 -98 77 -175 175 -175zM623 230c30 0 55 -25 55 -55s-25 -56 -55 -56c-32 0 -56 26 -56 56s24 55 56 55z" />
    <glyph glyph-name="perthousand" unicode="&#x2030;" horiz-adv-x="1187" 
d="M301 32l328 623c16 30 4 65 -24 81c-30 14 -66 4 -81 -26l-328 -623c-14 -27 -3 -64 26 -79c27 -14 61 -9 79 24zM204 393c95 0 175 77 175 174c0 96 -80 175 -175 175c-97 0 -174 -79 -174 -175c0 -97 77 -174 174 -174zM204 623c30 0 56 -26 56 -56
c0 -29 -26 -55 -56 -55s-55 26 -55 55c0 30 25 56 55 56zM623 0c95 0 174 79 174 175c0 97 -79 174 -174 174c-97 0 -175 -77 -175 -174c0 -96 78 -175 175 -175zM998 0c97 0 174 79 174 175c0 97 -77 174 -174 174c-95 0 -175 -77 -175 -174c0 -96 80 -175 175 -175z
M623 230c30 0 55 -24 55 -55c0 -30 -25 -56 -55 -56c-32 0 -56 26 -56 56c0 31 24 55 56 55zM998 230c32 0 55 -24 55 -55c0 -30 -23 -56 -55 -56c-30 0 -56 26 -56 56c0 31 26 55 56 55z" />
    <glyph glyph-name="plus" unicode="+" horiz-adv-x="580" 
d="M492 341c38 0 68 -30 68 -68c0 -37 -30 -67 -68 -67h-132v-138c0 -38 -30 -68 -68 -68c-37 0 -67 30 -67 68v138h-132c-38 0 -68 30 -68 67c0 38 30 68 68 68h132v126c0 38 30 68 67 68c38 0 68 -30 68 -68v-126h132z" />
    <glyph glyph-name="plusminus" unicode="&#xb1;" horiz-adv-x="588" 
d="M500 452c37 0 68 -30 68 -68s-31 -69 -68 -69h-135v-82c0 -38 -31 -69 -69 -69c-37 0 -68 31 -68 69v82h-135c-38 0 -68 31 -68 69s30 68 68 68h135v70c0 38 31 69 68 69c38 0 69 -31 69 -69v-70h135zM500 0c37 0 68 31 68 69s-31 68 -68 68h-407c-38 0 -68 -30 -68 -68
s30 -69 68 -69h407z" />
    <glyph glyph-name="product" unicode="&#x220f;" horiz-adv-x="801" 
d="M696 740c46 0 80 -36 80 -80s-34 -80 -80 -80h-38v-690c0 -44 -37 -80 -81 -80c-46 0 -80 36 -80 80v690h-186v-690c0 -44 -36 -80 -80 -80s-81 36 -81 80v690h-40c-44 0 -80 36 -80 80s36 80 80 80h586z" />
    <glyph glyph-name="radical" unicode="&#x221a;" horiz-adv-x="669" 
d="M605 737c36 -14 54 -56 39 -92l-244 -603c-9 -22 -30 -39 -53 -43c-33 -5 -65 13 -78 44l-124 316h-54c-39 0 -71 31 -71 70s32 71 71 71h103c29 0 54 -18 65 -45l78 -194l176 438c15 35 57 53 92 38z" />
    <glyph glyph-name="summation" unicode="&#x2211;" horiz-adv-x="574" 
d="M474 -140c44 0 80 34 80 80c0 43 -36 79 -80 79h-221l165 245c18 26 18 62 0 90l-161 227h217c44 0 80 36 80 79c0 44 -36 80 -80 80h-370c-65 0 -103 -72 -66 -125l217 -309l-217 -323c-35 -52 1 -123 66 -123h370z" />
    <glyph glyph-name="lozenge" unicode="&#x25ca;" horiz-adv-x="540" 
d="M272 0c25 0 47 13 60 34l178 301c13 21 13 49 0 70l-178 301c-13 21 -35 34 -60 34s-47 -13 -60 -34l-178 -301c-12 -21 -12 -49 0 -70l178 -301c13 -21 35 -34 60 -34zM175 370l97 164l97 -164l-97 -164z" />
    <glyph glyph-name="bar" unicode="|" horiz-adv-x="210" 
d="M105 -190c32 0 60 26 60 60v810c0 34 -28 60 -60 60c-34 0 -60 -26 -60 -60v-810c0 -34 26 -60 60 -60z" />
    <glyph glyph-name="at" unicode="@" horiz-adv-x="812" 
d="M406 746c207 0 376 -169 376 -376c0 -59 -14 -120 -42 -172c-30 -56 -91 -90 -156 -80c-51 6 -94 39 -116 84c-22 -10 -47 -16 -74 -16c-98 0 -178 79 -178 179c0 98 80 178 178 178c26 0 50 -5 72 -15c11 15 29 25 48 25c34 0 60 -27 60 -59v-229c1 -14 12 -27 27 -29
c26 -3 37 22 44 42c52 151 -44 354 -239 355c-142 1 -256 -121 -256 -263s114 -256 256 -256c20 0 39 3 58 7c33 7 66 -13 73 -45s-13 -64 -45 -72c-28 -7 -57 -10 -86 -10c-207 0 -376 169 -376 376s169 376 376 376zM394 306c33 0 60 26 60 59c0 32 -27 59 -60 59
c-32 0 -59 -27 -59 -59c0 -33 27 -59 59 -59z" />
    <glyph glyph-name="ampersand" unicode="&#x26;" horiz-adv-x="599" 
d="M532 380c37 -18 53 -63 35 -100l-54 -112l35 -43c26 -32 24 -79 -9 -105s-76 -26 -105 9l-10 12c-43 -32 -95 -50 -150 -50c-135 0 -244 109 -244 243c0 69 29 135 78 180c-26 34 -42 77 -42 124c0 114 94 208 208 208c115 0 208 -94 208 -208c0 -85 -51 -158 -123 -190
l48 -56l25 53c18 37 63 53 100 35zM274 596c-33 0 -58 -27 -58 -58c0 -33 25 -60 58 -60s58 27 58 60c0 31 -25 58 -58 58zM326 155l-122 144c-16 -17 -25 -40 -25 -65c0 -84 92 -115 147 -79z" />
    <glyph glyph-name="paragraph" unicode="&#xb6;" horiz-adv-x="552" 
d="M447 740c34 0 60 -28 60 -60v-739c0 -34 -28 -60 -60 -60c-34 0 -60 26 -60 60v697h-62v-697c0 -34 -26 -60 -60 -60c-35 0 -61 26 -61 60v357c-104 19 -184 111 -184 219c0 121 96 219 214 223h213z" />
    <glyph glyph-name="copyright" unicode="&#xa9;" horiz-adv-x="812" 
d="M407 746c206 0 375 -168 375 -375c0 -209 -169 -377 -375 -377c-209 0 -377 168 -377 377c0 207 168 375 377 375zM407 624c-143 0 -256 -111 -256 -253c0 -141 115 -255 256 -255s253 112 253 255c0 144 -110 253 -253 253zM411 183c42 0 85 11 117 38
c26 22 31 59 10 87c-20 27 -59 31 -85 10c-40 -33 -111 -6 -111 57c0 64 70 87 111 55c26 -20 67 -15 87 13s14 64 -12 84c-34 24 -75 39 -117 39c-106 -1 -191 -86 -191 -191c0 -107 85 -192 191 -192z" />
    <glyph glyph-name="registered" unicode="&#xae;" horiz-adv-x="814" 
d="M407 746c207 0 377 -168 377 -377c0 -207 -170 -375 -377 -375c-209 0 -377 168 -377 375c0 209 168 377 377 377zM407 635c-146 0 -266 -120 -266 -266s126 -264 266 -264c142 0 266 122 266 264c0 144 -122 266 -266 266zM484 333l67 -100c16 -23 10 -55 -14 -69
c-23 -13 -53 -15 -71 12l-83 124v-95c0 -29 -23 -51 -51 -51s-51 22 -51 51v338c0 27 23 51 51 51h91c75 0 138 -63 138 -138c0 -55 -30 -101 -77 -123zM460 456c0 20 -17 37 -37 37h-40v-75h40c20 0 37 18 37 38z" />
    <glyph glyph-name="section" unicode="&#xa7;" horiz-adv-x="490" 
d="M399 126c46 -76 45 -176 -22 -249c-78 -84 -212 -103 -313 -34c-35 24 -45 71 -22 106c24 35 69 41 106 21c18 -10 48 -19 66 -17c69 6 86 86 30 118c-35 20 -95 21 -147 73c-81 81 -77 211 12 288c-23 33 -35 73 -35 114c2 159 186 256 326 171c36 -22 49 -68 27 -104
s-70 -50 -105 -28c-38 24 -95 1 -96 -40c-1 -25 25 -48 61 -54c178 -29 234 -245 112 -365zM205 253c9 -10 25 -14 49 -22c9 -3 22 -9 22 -9c39 23 48 61 22 94c-18 22 -56 20 -79 8c-30 -18 -35 -50 -14 -71z" />
    <glyph glyph-name="trademark" unicode="&#x2122;" horiz-adv-x="680" 
d="M216 740c23 0 41 -17 41 -40s-18 -40 -41 -40h-40v-255c0 -21 -17 -40 -40 -40s-40 19 -40 40v255h-40c-21 0 -41 17 -41 40s20 40 41 40h160zM612 740c23 0 43 -17 43 -40v-295c0 -21 -20 -40 -43 -40c-21 0 -40 19 -40 40v144l-72 -151c-6 -13 -20 -21 -33 -21
s-27 9 -33 21l-74 151v-144c0 -21 -17 -40 -40 -40c-21 0 -40 19 -40 40v295c0 23 19 40 40 40s34 -13 42 -31c2 -5 65 -134 105 -216c40 82 103 211 105 216c7 18 21 31 40 31z" />
    <glyph glyph-name="degree" unicode="&#xb0;" horiz-adv-x="347" 
d="M174 740c79 0 143 -64 143 -142c0 -80 -64 -143 -143 -143c-80 0 -144 63 -144 143c0 78 64 142 144 142zM174 641c-24 0 -45 -21 -45 -43c0 -24 21 -44 45 -44c22 0 43 20 43 44c0 22 -21 43 -43 43z" />
    <glyph glyph-name="asciicircum" unicode="^" horiz-adv-x="519" 
d="M454 230c33 18 45 58 27 91l-162 296c-11 22 -34 35 -60 35c-25 0 -47 -13 -60 -35l-161 -296c-18 -33 -6 -74 26 -91c34 -19 75 -6 93 27l102 184l104 -184c22 -38 60 -44 91 -27z" />
    <glyph glyph-name="dagger" unicode="&#x2020;" horiz-adv-x="588" 
d="M503 499c39 0 70 -31 70 -69c0 -39 -31 -70 -70 -70h-137v-480c0 -39 -31 -70 -70 -70c-38 0 -69 31 -69 70v480h-137c-39 0 -70 31 -70 70c0 38 31 69 70 69h137v171c0 39 31 70 69 70c39 0 70 -31 70 -70v-171h137z" />
    <glyph glyph-name="daggerdbl" unicode="&#x2021;" horiz-adv-x="588" 
d="M504 328c38 0 69 -32 69 -70c0 -39 -31 -70 -69 -70h-138v-308c0 -39 -31 -70 -70 -70c-38 0 -69 31 -69 70v308h-138c-38 0 -69 31 -69 70c0 38 31 70 69 70h138v32h-138c-38 0 -69 31 -69 69c0 39 31 70 69 70h138v171c0 39 31 70 69 70c39 0 70 -31 70 -70v-171h138
c38 0 69 -31 69 -70c0 -38 -31 -69 -69 -69h-138v-32h138z" />
    </font>
</defs>
</svg>
