<svg width="67" height="66" viewBox="0 0 67 66" fill="none" xmlns="http://www.w3.org/2000/svg">
<path d="M33.4985 0C15.276 0 0.498535 14.7775 0.498535 33C0.498535 51.2225 15.276 66 33.4985 66C51.721 66 66.4985 51.2225 66.4985 33C66.4985 14.7775 51.721 0 33.4985 0Z" fill="#263640"/>
<path d="M41.5184 17.6338L54.2286 15.2506C55.4082 15.0295 56.4985 15.9344 56.4985 17.1345V51.5677C56.4985 52.49 55.8416 53.2816 54.9351 53.4515L41.5184 55.9671C41.285 56.0109 41.0454 56.0109 40.812 55.9671L26.1851 53.2246C25.9517 53.1808 25.7121 53.1808 25.4787 53.2246L12.7684 55.6078C11.5888 55.829 10.4985 54.9241 10.4985 53.724V19.2908C10.4985 18.3685 11.1554 17.5769 12.0619 17.407L25.4786 14.8914C25.712 14.8476 25.9516 14.8476 26.185 14.8914L40.8119 17.6339C41.0454 17.6776 41.2849 17.6776 41.5184 17.6338Z" fill="#E6E6E7"/>
<path d="M41.1652 17.6667V56C41.0469 56 40.9287 55.9891 40.812 55.9672L26.1851 53.2247C26.0684 53.2028 25.9501 53.1919 25.8319 53.1919V14.8585C25.9501 14.8585 26.0684 14.8694 26.1851 14.8913L40.812 17.6338C40.9287 17.6557 41.0469 17.6667 41.1652 17.6667Z" fill="#BEBCB2"/>
<path d="M42.2248 21.4015L52.6652 19.4439V49.977L41.1652 52.1333L26.8913 49.4569C26.5398 49.391 26.1859 49.3581 25.8319 49.3581C25.4779 49.3581 25.1238 49.3911 24.7722 49.457L14.3318 51.4145V20.8814L25.8318 18.7251L40.1055 21.4015H40.1057C40.8087 21.5334 41.5216 21.5333 42.2248 21.4015Z" fill="#A5AA61"/>
<path d="M41.1652 21.5004V52.1333L26.8913 49.4569C26.5398 49.391 26.1859 49.3581 25.8319 49.3581V18.7252L40.1056 21.4016H40.1058C40.4572 21.4675 40.8112 21.5004 41.1652 21.5004Z" fill="#8A9249"/>
<path d="M40.9985 33C40.0795 33 39.2686 32.4174 39.001 31.565L34.7843 18.1317C33.5142 14.0857 36.6365 10 40.9985 10C45.3605 10 48.4828 14.0857 47.2127 18.1317L42.996 31.565C42.7284 32.4174 41.9175 33 40.9985 33Z" fill="#D4632E"/>
<path d="M47.2127 18.1317L42.996 31.565C42.7284 32.4174 41.9175 33 40.9985 33V10C45.3605 10 48.4828 14.0857 47.2127 18.1317Z" fill="#BC3C28"/>
<path d="M43.9985 16.5C43.9985 18.1569 42.6554 19.5 40.9985 19.5C39.3416 19.5 37.9985 18.1569 37.9985 16.5C37.9985 14.8431 39.3416 13.5 40.9985 13.5C42.6554 13.5 43.9985 14.8431 43.9985 16.5Z" fill="#F2F2F2"/>
<path d="M40.9985 19.5V13.5C42.6554 13.5 43.9985 14.8431 43.9985 16.5C43.9985 18.1569 42.6554 19.5 40.9985 19.5Z" fill="#E0E0E0"/>
</svg>
