<svg width="169" height="37" viewBox="0 0 169 37" fill="none" xmlns="http://www.w3.org/2000/svg">
<path d="M62.194 23.624H66.226V26H59.116V13.364H62.194V23.624ZM86.2701 26.126C85.0821 26.126 83.9901 25.85 82.9941 25.298C82.0101 24.746 81.2241 23.978 80.6361 22.994C80.0601 21.998 79.7721 20.882 79.7721 19.646C79.7721 18.41 80.0601 17.3 80.6361 16.316C81.2241 15.332 82.0101 14.564 82.9941 14.012C83.9901 13.46 85.0821 13.184 86.2701 13.184C87.4581 13.184 88.5441 13.46 89.5281 14.012C90.5241 14.564 91.3041 15.332 91.8681 16.316C92.4441 17.3 92.7321 18.41 92.7321 19.646C92.7321 20.882 92.4441 21.998 91.8681 22.994C91.2921 23.978 90.5121 24.746 89.5281 25.298C88.5441 25.85 87.4581 26.126 86.2701 26.126ZM86.2701 23.318C87.2781 23.318 88.0821 22.982 88.6821 22.31C89.2941 21.638 89.6001 20.75 89.6001 19.646C89.6001 18.53 89.2941 17.642 88.6821 16.982C88.0821 16.31 87.2781 15.974 86.2701 15.974C85.2501 15.974 84.4341 16.304 83.8221 16.964C83.2221 17.624 82.9221 18.518 82.9221 19.646C82.9221 20.762 83.2221 21.656 83.8221 22.328C84.4341 22.988 85.2501 23.318 86.2701 23.318ZM115.433 17.36C115.205 16.94 114.875 16.622 114.443 16.406C114.023 16.178 113.525 16.064 112.949 16.064C111.953 16.064 111.155 16.394 110.555 17.054C109.955 17.702 109.655 18.572 109.655 19.664C109.655 20.828 109.967 21.74 110.591 22.4C111.227 23.048 112.097 23.372 113.201 23.372C113.957 23.372 114.593 23.18 115.109 22.796C115.637 22.412 116.021 21.86 116.261 21.14H112.355V18.872H119.051V21.734C118.823 22.502 118.433 23.216 117.881 23.876C117.341 24.536 116.651 25.07 115.811 25.478C114.971 25.886 114.023 26.09 112.967 26.09C111.719 26.09 110.603 25.82 109.619 25.28C108.647 24.728 107.885 23.966 107.333 22.994C106.793 22.022 106.523 20.912 106.523 19.664C106.523 18.416 106.793 17.306 107.333 16.334C107.885 15.35 108.647 14.588 109.619 14.048C110.591 13.496 111.701 13.22 112.949 13.22C114.461 13.22 115.733 13.586 116.765 14.318C117.809 15.05 118.499 16.064 118.835 17.36H115.433ZM141.221 23.768H136.505L135.749 26H132.527L137.099 13.364H140.663L145.235 26H141.977L141.221 23.768ZM140.429 21.392L138.863 16.766L137.315 21.392H140.429ZM162.503 23.48H167.939V26H159.011V23.66L164.411 15.884H159.011V13.364H167.939V15.704L162.503 23.48Z" fill="#263640"/>
<path fill-rule="evenodd" clip-rule="evenodd" d="M19.3608 12.8969V18.6586V31.0792H28.7045C33.455 31.0792 36.2744 28.9121 36.2744 24.9487V24.8424C36.2744 21.0897 33.3506 18.6584 28.7569 18.6584H23.3901L27.4 12.8968L36.3791 0H44L34.134 14.0077C39.1977 15.4864 42.7995 19.1343 42.7995 25.2122V25.3185C42.7995 28.5416 41.703 31.2909 39.7718 33.2987C37.4223 35.6253 33.8207 36.9997 29.227 36.9997H12.941V9.18884H19.361V12.8969H19.3608ZM0 0.000160217H31.5439L27.4212 5.9203H6.42036V37H0V0.000160217Z" fill="#263640"/>
</svg>
