<svg width="143" height="37" viewBox="0 0 143 37" fill="none" xmlns="http://www.w3.org/2000/svg">
<path d="M67.092 25.126C65.904 25.126 64.812 24.85 63.816 24.298C62.832 23.746 62.046 22.978 61.458 21.994C60.882 20.998 60.594 19.882 60.594 18.646C60.594 17.41 60.882 16.3 61.458 15.316C62.046 14.332 62.832 13.564 63.816 13.012C64.812 12.46 65.904 12.184 67.092 12.184C68.28 12.184 69.366 12.46 70.35 13.012C71.346 13.564 72.126 14.332 72.69 15.316C73.266 16.3 73.554 17.41 73.554 18.646C73.554 19.882 73.266 20.998 72.69 21.994C72.114 22.978 71.334 23.746 70.35 24.298C69.366 24.85 68.28 25.126 67.092 25.126ZM67.092 22.318C68.1 22.318 68.904 21.982 69.504 21.31C70.116 20.638 70.422 19.75 70.422 18.646C70.422 17.53 70.116 16.642 69.504 15.982C68.904 15.31 68.1 14.974 67.092 14.974C66.072 14.974 65.256 15.304 64.644 15.964C64.044 16.624 63.744 17.518 63.744 18.646C63.744 19.762 64.044 20.656 64.644 21.328C65.256 21.988 66.072 22.318 67.092 22.318ZM90.9444 22.624H94.9764V25H87.8664V12.364H90.9444V22.624ZM112.123 22.624H116.155V25H109.045V12.364H112.123V22.624ZM138.089 22.768H133.373L132.617 25H129.395L133.967 12.364H137.531L142.103 25H138.845L138.089 22.768ZM137.297 20.392L135.731 15.766L134.183 20.392H137.297Z" fill="#263640"/>
<path fill-rule="evenodd" clip-rule="evenodd" d="M23.0008 22.8428L36.9112 36.9992L23.0008 29.9205L9.08944 36.9992L23.0008 22.8428ZM22.9992 0L46 37L22.9997 13.5923L0 36.9994L22.9992 0Z" fill="#263640"/>
</svg>
