<svg width="67" height="66" viewBox="0 0 67 66" fill="none" xmlns="http://www.w3.org/2000/svg">
<path d="M33.4985 0C15.276 0 0.498474 14.7775 0.498474 33C0.498474 51.2225 15.276 66 33.4985 66C51.721 66 66.4985 51.2225 66.4985 33C66.4985 14.7775 51.721 0 33.4985 0Z" fill="#263640"/>
<mask id="mask0_106_716" style="mask-type:alpha" maskUnits="userSpaceOnUse" x="0" y="0" width="67" height="66">
<path d="M33.4985 0C15.276 0 0.498474 14.7775 0.498474 33C0.498474 51.2225 15.276 66 33.4985 66C51.721 66 66.4985 51.2225 66.4985 33C66.4985 14.7775 51.721 0 33.4985 0Z" fill="#263640"/>
</mask>
<g mask="url(#mask0_106_716)">
<path d="M21.6347 21.3483H16.3675V26.6155H21.6347V21.3483Z" fill="#A9D0D3"/>
<path d="M21.634 31.8827H16.3668V37.1499H21.634V31.8827Z" fill="#A9D0D3"/>
<path d="M21.634 52.9517H16.3668V58.2189H21.634V52.9517Z" fill="#A9D0D3"/>
<path d="M32.1683 21.3484H26.9011V26.6156H32.1683V21.3484Z" fill="#A9D0D3"/>
<path d="M21.634 42.4172H16.3668V47.6845H21.634V42.4172Z" fill="#A9D0D3"/>
<path d="M40.0694 58.219H32.1686V66.1198H40.0694V58.219Z" fill="#A9D0D3"/>
<path d="M11.0993 66.1197V16.081H37.4355V31.8827H28.2178C27.4918 31.8827 26.901 32.4735 26.901 33.1995V66.1197H11.0993ZM16.3665 58.2188H21.6338V52.9516H16.3665V58.2188ZM16.3665 47.6844H21.6338V42.4171H16.3665V47.6844ZM16.3665 37.1499H21.6338V31.8827H16.3665V37.1499ZM26.901 26.6155H32.1682V21.3482H26.901V26.6155ZM16.3665 26.6155H21.6338V21.3482H16.3665V26.6155Z" fill="#79615B"/>
<path d="M50.6036 37.1499H32.1683V42.4171H50.6036V37.1499Z" fill="#A9D0D3"/>
<path d="M50.6035 47.6843H32.1682V52.9516H50.6035V47.6843Z" fill="#A9D0D3"/>
<path d="M50.6034 58.2188H45.3362V66.1197H50.6034V58.2188Z" fill="#FF877F"/>
<path d="M50.6037 66.1197V59.5357C50.6037 58.8097 50.0128 58.2188 49.2869 58.2188H46.6532C45.9272 58.2188 45.3364 58.8097 45.3364 59.5357V66.1197H40.0692V59.5357C40.0692 58.8097 39.4784 58.2188 38.7524 58.2188H33.4852C32.7592 58.2188 32.1684 58.8097 32.1684 59.5357V66.1197H26.9011V31.8827H55.8709V66.1197H50.6037ZM33.4852 47.6844C32.7592 47.6844 32.1684 48.2752 32.1684 49.0012V51.6348C32.1684 52.3608 32.7592 52.9516 33.4852 52.9516H49.2869C50.0128 52.9516 50.6037 52.3608 50.6037 51.6348V49.0012C50.6037 48.2752 50.0128 47.6844 49.2869 47.6844H33.4852ZM33.4852 37.1499C32.7592 37.1499 32.1684 37.7407 32.1684 38.4667V41.1003C32.1684 41.8263 32.7592 42.4172 33.4852 42.4172H49.2869C50.0128 42.4172 50.6037 41.8263 50.6037 41.1003V38.4667C50.6037 37.7407 50.0128 37.1499 49.2869 37.1499H33.4852Z" fill="#9A8984"/>
<path d="M33.4849 54.2685H49.2866C50.7413 54.2685 51.9202 53.0896 51.9202 51.6349V49.0013C51.9202 47.5466 50.7413 46.3677 49.2866 46.3677H33.4849C32.0303 46.3677 30.8513 47.5466 30.8513 49.0013V51.6349C30.8513 53.0896 32.0303 54.2685 33.4849 54.2685ZM33.4849 49.0013H49.2866V51.6349H33.4849V49.0013Z" fill="#573A32"/>
<path d="M33.4849 43.734H49.2866C50.7413 43.734 51.9202 42.555 51.9202 41.1004V38.4667C51.9202 37.0121 50.7413 35.8331 49.2866 35.8331H33.4849C32.0303 35.8331 30.8513 37.0121 30.8513 38.4667V41.1004C30.8513 42.555 32.0303 43.734 33.4849 43.734ZM33.4849 38.4667H49.2866V41.1004H33.4849V38.4667Z" fill="#573A32"/>
<path d="M21.6339 20.0314H16.3667C15.6389 20.0314 15.0499 20.6204 15.0499 21.3482V26.6154C15.0499 27.3432 15.6389 27.9322 16.3667 27.9322H21.6339C22.3616 27.9322 22.9507 27.3432 22.9507 26.6154V21.3482C22.9507 20.6204 22.3616 20.0314 21.6339 20.0314ZM20.3171 25.2986H17.6835V22.665H20.3171V25.2986Z" fill="#573A32"/>
<path d="M33.485 26.6154V21.3482C33.485 20.6204 32.8959 20.0314 32.1682 20.0314H26.901C26.1732 20.0314 25.5842 20.6204 25.5842 21.3482V26.6154C25.5842 27.3432 26.1732 27.9322 26.901 27.9322H32.1682C32.8959 27.9322 33.485 27.3432 33.485 26.6154ZM30.8514 25.2986H28.2178V22.665H30.8514V25.2986Z" fill="#573A32"/>
<path d="M21.6339 30.5659H16.3667C15.6389 30.5659 15.0499 31.155 15.0499 31.8827V37.15C15.0499 37.8777 15.6389 38.4668 16.3667 38.4668H21.6339C22.3616 38.4668 22.9507 37.8777 22.9507 37.15V31.8827C22.9507 31.155 22.3616 30.5659 21.6339 30.5659ZM20.3171 35.8331H17.6835V33.1995H20.3171V35.8331Z" fill="#573A32"/>
<path d="M21.6339 41.1003H16.3667C15.6389 41.1003 15.0499 41.6894 15.0499 42.4171V47.6844C15.0499 48.4121 15.6389 49.0012 16.3667 49.0012H21.6339C22.3616 49.0012 22.9507 48.4121 22.9507 47.6844V42.4171C22.9507 41.6894 22.3616 41.1003 21.6339 41.1003ZM20.3171 46.3676H17.6835V43.734H20.3171V46.3676Z" fill="#573A32"/>
<path d="M21.6339 51.6349H16.3667C15.6389 51.6349 15.0499 52.224 15.0499 52.9517V58.2189C15.0499 58.9467 15.6389 59.5357 16.3667 59.5357H21.6339C22.3616 59.5357 22.9507 58.9467 22.9507 58.2189V52.9517C22.9507 52.224 22.3616 51.6349 21.6339 51.6349ZM20.3171 56.9021H17.6835V54.2685H20.3171V56.9021Z" fill="#573A32"/>
<path d="M58.5044 64.803H57.1876V33.1996C57.1876 31.7449 56.0086 30.566 54.5539 30.566H38.7522V17.3979C38.7522 15.9432 37.5733 14.7643 36.1186 14.7643H12.4161C10.9614 14.7643 9.78248 15.9432 9.78248 17.3979V64.803H8.46567C7.73793 64.803 7.14886 65.392 7.14886 66.1198C7.14886 66.8475 7.73793 67.4366 8.46567 67.4366H58.5044C59.2321 67.4366 59.8212 66.8475 59.8212 66.1198C59.8212 65.392 59.2321 64.803 58.5044 64.803ZM25.5842 33.1996V64.803H12.4161V17.3979H36.1186V30.566H28.2178C26.7631 30.566 25.5842 31.7449 25.5842 33.1996ZM38.7522 64.803H33.485V59.5357H38.7522V64.803ZM49.2867 64.803H46.6531V59.5357H49.2867V64.803ZM54.5539 64.803H51.9203V59.5357C51.9203 58.0811 50.7414 56.9021 49.2867 56.9021H46.6531C45.1984 56.9021 44.0195 58.0811 44.0195 59.5357V64.803H41.3859V59.5357C41.3859 58.0811 40.2069 56.9021 38.7522 56.9021H33.485C32.0304 56.9021 30.8514 58.0811 30.8514 59.5357V64.803H28.2178V33.1996H54.5539V64.803Z" fill="#573A32"/>
</g>
</svg>
