<svg width="67" height="66" viewBox="0 0 67 66" fill="none" xmlns="http://www.w3.org/2000/svg">
<path d="M33.5981 0C15.3756 0 0.598083 14.7775 0.598083 33C0.598083 51.2225 15.3756 66 33.5981 66C51.8206 66 66.5981 51.2225 66.5981 33C66.5981 14.7775 51.8206 0 33.5981 0Z" fill="#263640"/>
<path d="M40.1203 34.0292V30.1158H27.1142V34.0292C27.1142 34.6998 26.6529 35.2823 26.0001 35.4357L17.059 37.5396C15.7533 37.847 14.8305 39.0119 14.8305 40.3532V46.2832C14.8305 47.5802 15.8818 48.6315 17.1788 48.6315H50.0554C51.3524 48.6315 52.4037 47.5802 52.4037 46.2832V40.3532C52.4037 39.012 51.481 37.847 50.1754 37.5397L41.2342 35.4359C40.5815 35.2823 40.1203 34.6998 40.1203 34.0292Z" fill="#E6AF78"/>
<path d="M50.1754 37.5397L42.6866 35.7777C41.6209 39.7954 37.9701 42.7608 33.6171 42.7608C29.264 42.7608 25.6133 39.7954 24.5477 35.7777L17.059 37.5397C15.7533 37.8471 14.8305 39.012 14.8305 40.3531V46.2833C14.8305 47.5802 15.882 48.6316 17.1788 48.6316H50.0554C51.3522 48.6316 52.4037 47.5802 52.4037 46.2833V40.3531C52.4037 39.0119 51.4809 37.847 50.1754 37.5397Z" fill="#FFD782"/>
<path d="M27.1137 34.0292C27.1137 34.5143 26.8702 34.9505 26.4896 35.2144C35.0619 39.5091 40.1199 31.0167 40.1199 31.0167V30.1157H27.1138V34.029H27.1137V34.0292Z" fill="#D29B6E"/>
<path d="M24.2236 13.1356L24.8532 26.9881C24.912 28.2822 25.5466 29.4823 26.5829 30.2595L29.5706 32.5002C30.3211 33.0631 31.2338 33.3673 32.1718 33.3673H35.062C36 33.3673 36.9127 33.0631 37.6631 32.5002L40.6508 30.2595C41.6871 29.4822 42.3217 28.2822 42.3805 26.9881L43.0102 13.1356H24.2236Z" fill="#F0C087"/>
<path d="M24.2236 13.1356L24.8532 26.9882C24.912 28.2824 25.5466 29.4824 26.5829 30.2597L29.5706 32.5004C30.3211 33.0633 31.2338 33.3675 32.1718 33.3675H33.6168C31.4491 32.645 30.0041 26.8643 30.0041 26.8643L30.0831 19.8121C30.0896 19.2306 30.5211 18.7462 31.0965 18.6621C34.9102 18.106 39.7785 17.008 43.0103 13.81V13.1355L24.2236 13.1356Z" fill="#E6AF78"/>
<path d="M22.7786 12.4131V13.1356L23.5011 21.0838H24.9463L26.3915 16.7484C26.3915 16.7484 35.7848 16.7484 40.8428 13.8582L42.288 21.0839H43.7332L44.4557 13.1357V12.4132C44.4554 8.42234 41.2204 5.18738 37.2299 5.18738H30.0042C26.0136 5.18738 22.7786 8.42234 22.7786 12.4131Z" fill="#5A4146"/>
<path d="M44.4097 22.2197L43.5937 25.4838C43.497 25.8706 43.1495 26.1418 42.7509 26.1418C42.3128 26.1418 41.9433 25.8155 41.8889 25.3808L41.4716 22.0425C41.36 21.1499 42.0561 20.3613 42.9557 20.3613H42.9585C43.9318 20.3613 44.6458 21.2756 44.4097 22.2197Z" fill="#F0C087"/>
<path d="M22.824 22.2197L23.64 25.4838C23.7367 25.8706 24.0841 26.1418 24.4828 26.1418C24.9209 26.1418 25.2904 25.8155 25.3448 25.3808L25.7621 22.0425C25.8737 21.1499 25.1776 20.3613 24.2779 20.3613H24.2752C23.302 20.3613 22.588 21.2756 22.824 22.2197Z" fill="#E6AF78"/>
<path d="M20.135 42.7678L15.4529 38.5618C15.0605 39.0586 14.8304 39.6837 14.8304 40.3529V46.2831C14.8304 47.58 15.8817 48.6314 17.1787 48.6314H21.3334V45.4553C21.3334 44.4301 20.8977 43.4531 20.135 42.7678Z" fill="#FFC36E"/>
<path d="M47.0989 42.7678L51.7811 38.5618C52.1735 39.0586 52.4036 39.6837 52.4036 40.3529V46.2831C52.4036 47.58 51.3522 48.6314 50.0553 48.6314H45.9004V45.4553C45.9004 44.4301 46.3361 43.4531 47.0989 42.7678Z" fill="#FFC36E"/>
<path d="M42.6859 35.7777C41.6204 39.7954 37.9696 42.7608 33.6166 42.7608C29.2635 42.7608 25.6128 39.7954 24.5472 35.7777L22.2661 36.3144L22.2776 36.3796C23.6408 41.5195 28.3036 45.1091 33.6166 45.1091C38.9296 45.1091 43.5924 41.5195 44.9558 36.3796L44.962 36.3131L42.6859 35.7777Z" fill="#FFC36E"/>
<path d="M27.9582 55.3248L25.5653 54.9771L24.4951 52.8087C24.318 52.4498 23.8061 52.4498 23.6289 52.8087L22.9418 54.2009L26.7425 60.662C26.8615 60.5584 26.934 60.4002 26.9031 60.2195L26.4944 57.8363L28.2259 56.1485C28.5125 55.8691 28.3543 55.3823 27.9582 55.3248Z" fill="#FFD782"/>
<path d="M37.5364 55.3248L35.1435 54.9771L34.0733 52.8087C33.8962 52.4498 33.3844 52.4498 33.2072 52.8087L32.5201 54.2009L36.3207 60.662C36.4398 60.5584 36.5123 60.4002 36.4813 60.2195L36.0726 57.8363L37.8042 56.1485C38.0907 55.8691 37.9326 55.3823 37.5364 55.3248Z" fill="#FFD782"/>
<path d="M47.1142 55.3248L44.7213 54.9771L43.6512 52.8087C43.474 52.4498 42.9622 52.4498 42.785 52.8087L42.0979 54.2009L45.8985 60.662C46.0176 60.5584 46.0901 60.4002 46.0592 60.2195L45.6504 57.8363L47.382 56.1485C47.6685 55.8691 47.5103 55.3823 47.1142 55.3248Z" fill="#FFD782"/>
<path d="M24.0618 59.6038L21.9215 60.729C21.5672 60.9153 21.1531 60.6144 21.2207 60.2198L21.6294 57.8366L19.898 56.1488C19.6114 55.8694 19.7695 55.3826 20.1657 55.325L22.5586 54.9773L23.6287 52.8089C23.8058 52.45 24.3178 52.45 24.4949 52.8089L25.565 54.9773L27.9579 55.325C28.3541 55.3826 28.5122 55.8694 28.2256 56.1488L26.494 57.8367L26.9028 60.2199C26.9704 60.6144 26.5563 60.9153 26.202 60.729L24.0618 59.6038Z" fill="#FFCD78"/>
<path d="M25.6609 55.6396C25.2821 55.5532 24.9839 55.2551 24.8976 54.8763C24.8911 54.8479 24.8534 54.8479 24.8468 54.8763C24.7605 55.2551 24.4623 55.5533 24.0836 55.6396C24.0551 55.6461 24.0551 55.6838 24.0836 55.6904C24.4623 55.7767 24.7605 56.0749 24.8468 56.4536C24.8533 56.4821 24.891 56.4821 24.8976 56.4536C24.9839 56.0749 25.2821 55.7767 25.6609 55.6904C25.6893 55.6839 25.6893 55.6461 25.6609 55.6396Z" fill="white"/>
<path d="M33.6402 59.6034L31.4999 60.7286C31.1456 60.9149 30.7315 60.614 30.7991 60.2194L31.2079 57.8362L29.4763 56.1484C29.1897 55.869 29.3478 55.3822 29.744 55.3246L32.1369 54.9769L33.207 52.8085C33.3841 52.4496 33.8961 52.4496 34.0732 52.8085L35.1433 54.9769L37.5362 55.3246C37.9324 55.3822 38.0905 55.8689 37.8039 56.1484L36.0724 57.8362L36.4811 60.2194C36.5487 60.614 36.1346 60.9148 35.7803 60.7286L33.6402 59.6034Z" fill="#FFCD78"/>
<path d="M35.2387 55.6396C34.86 55.5532 34.5618 55.2551 34.4755 54.8763C34.469 54.8479 34.4313 54.8479 34.4247 54.8763C34.3384 55.2551 34.0402 55.5533 33.6614 55.6396C33.633 55.6461 33.633 55.6838 33.6614 55.6904C34.0402 55.7767 34.3384 56.0749 34.4247 56.4536C34.4312 56.4821 34.4689 56.4821 34.4755 56.4536C34.5618 56.0749 34.86 55.7767 35.2387 55.6904C35.2672 55.6839 35.2672 55.6461 35.2387 55.6396Z" fill="white"/>
<path d="M43.2184 59.6034L41.0781 60.7286C40.7238 60.9149 40.3097 60.614 40.3773 60.2194L40.786 57.8362L39.0545 56.1484C38.7679 55.869 38.926 55.3822 39.3222 55.3246L41.7151 54.9769L42.7852 52.8085C42.9623 52.4496 43.4742 52.4496 43.6514 52.8085L44.7215 54.9769L47.1144 55.3246C47.5105 55.3822 47.6687 55.8689 47.3821 56.1484L45.6505 57.8362L46.0593 60.2194C46.1269 60.614 45.7128 60.9148 45.3585 60.7286L43.2184 59.6034Z" fill="#FFCD78"/>
<path d="M44.8169 55.6396C44.4381 55.5532 44.14 55.2551 44.0537 54.8763C44.0472 54.8479 44.0094 54.8479 44.0029 54.8763C43.9166 55.2551 43.6184 55.5533 43.2396 55.6396C43.2111 55.6461 43.2111 55.6838 43.2396 55.6904C43.6184 55.7767 43.9166 56.0749 44.0029 56.4536C44.0094 56.4821 44.0471 56.4821 44.0537 56.4536C44.14 56.0749 44.4381 55.7767 44.8169 55.6904C44.8454 55.6839 44.8454 55.6461 44.8169 55.6396Z" fill="white"/>
</svg>
