<svg width="67" height="66" viewBox="0 0 67 66" fill="none" xmlns="http://www.w3.org/2000/svg">
<path d="M33.5015 0C15.279 0 0.501465 14.7775 0.501465 33C0.501465 51.2225 15.279 66 33.5015 66C51.724 66 66.5015 51.2225 66.5015 33C66.5015 14.7775 51.724 0 33.5015 0Z" fill="#263640"/>
<path d="M56.1665 50.9166C55.0359 47.2854 45.366 44.3592 33.4483 44.3592C21.5305 44.3592 11.967 47.2854 10.8364 50.9166C10.4906 52.0472 10.1049 53.8695 9.73242 55.8912C15.7312 62.1294 24.1641 66.0001 33.5015 66.0001C42.8388 66.0001 51.2717 62.1161 57.2705 55.8912C56.9114 53.8695 56.5257 52.0339 56.1665 50.9166Z" fill="#1D1D1E"/>
<path d="M35.9622 59.9479V65.9068C39.5402 65.6408 42.9718 64.8028 46.1375 63.486V59.9479H35.9622Z" fill="#D6E7F2"/>
<path d="M46.1375 59.8416H35.9622V60.6663H46.1375V59.8416Z" fill="#556877"/>
<path d="M45.1132 61.5442H40.9633C40.8436 61.5442 40.7505 61.6373 40.7505 61.757C40.7505 61.8767 40.8436 61.9698 40.9633 61.9698H45.1132C45.233 61.9698 45.3261 61.8767 45.3261 61.757C45.3261 61.6373 45.233 61.5442 45.1132 61.5442Z" fill="#556877"/>
<path d="M45.1132 63.127H40.9633C40.8436 63.127 40.7505 63.2201 40.7505 63.3398C40.7505 63.4595 40.8436 63.5526 40.9633 63.5526H45.1132C45.233 63.5526 45.3261 63.4595 45.3261 63.3398C45.3261 63.2201 45.233 63.127 45.1132 63.127Z" fill="#556877"/>
<path d="M40.9765 64.7098C40.8568 64.7098 40.7637 64.8029 40.7637 64.9226C40.7637 65.0423 40.8568 65.1354 40.9765 65.1354H41.0563C41.6016 65.0024 42.147 64.8694 42.679 64.7098H40.9765Z" fill="#556877"/>
<path d="M39.8593 61.3312H36.7468V65.2817H39.8593V61.3312Z" fill="#556877"/>
<path d="M33.4617 48.1766L27.9418 44.6252C27.9418 44.6252 30.9212 58.9904 33.5149 58.9904C36.1219 58.9904 39.0615 44.6252 39.0615 44.6252L33.4617 48.1766Z" fill="#D4D6D8"/>
<path d="M33.475 42.1645L28.2078 42.8694L28.4605 44.6119L33.4617 48.3495L38.5427 44.6119L38.7954 42.8694L33.475 42.1645Z" fill="#D4D6D8"/>
<path d="M38.6757 37.5225H28.3275C29.9369 42.3907 28.4605 44.612 28.4605 44.612L32.0385 45.4233H34.9647L38.5427 44.612C38.5427 44.612 37.0662 42.3907 38.6757 37.5225Z" fill="#E2A379"/>
<path d="M38.7955 42.8694L38.024 47.7243L41.1764 44.9311L38.7955 42.8694Z" fill="#F3FAFF"/>
<path d="M28.2078 42.8694L25.8269 44.9311L28.9793 47.7243L28.2078 42.8694Z" fill="#F3FAFF"/>
<path d="M38.7955 42.8694L33.5017 45.4233C33.5017 45.4233 38.0241 47.7243 38.0507 47.6977L41.1764 44.9311L38.7955 42.8694Z" fill="#F3FAFF"/>
<path d="M28.2078 42.8694L25.8269 44.9311L28.9527 47.6977C28.9793 47.7243 33.5016 45.4233 33.5016 45.4233L28.2078 42.8694Z" fill="#F3FAFF"/>
<path d="M33.5015 45.4232L31.3999 46.474L33.5015 49.8791L35.5897 46.474L33.5015 45.4232Z" fill="#86B4D1"/>
<path d="M34.0333 48.1367H32.9559L31.4529 55.2262C32.1179 57.4342 32.8229 58.9771 33.5012 58.9771C34.1796 58.9771 34.8846 57.4475 35.5363 55.2661L34.0333 48.1367Z" fill="#86B4D1"/>
<path d="M33.5015 60.9856V58.9771C33.5015 58.9771 28.9791 47.7111 28.9525 47.6978L26.6514 44.2129L24.9888 45.0642L26.0529 52.4197L28.2209 51.9275L26.6248 53.8828L33.5015 60.9856Z" fill="#4A4A54"/>
<path d="M42.0142 45.0641L40.3515 44.2128L38.0504 47.6977C38.0238 47.7243 33.5015 58.977 33.5015 58.977V60.9855L40.3781 53.8827L38.782 51.9275L40.9501 52.4196L42.0142 45.0641Z" fill="#4A4A54"/>
<path d="M33.5013 8.19354C27.0237 8.19354 21.7565 11.0134 21.7565 23.3036C21.7565 27.4668 22.5811 30.7256 23.8181 33.2395C26.5316 38.7727 31.2268 40.7014 33.5013 40.7014C35.7758 40.7014 40.4711 38.7727 43.1845 33.2395C44.4215 30.7256 45.2462 27.4668 45.2462 23.3036C45.2462 11.0134 39.979 8.19354 33.5013 8.19354Z" fill="#F4B382"/>
<path d="M35.1111 34.4498C34.6588 34.3833 33.5016 34.7957 33.5016 34.7957C33.5016 34.7957 32.3444 34.3966 31.8789 34.4498C31.1473 34.5562 30.0433 35.0883 30.0433 35.2745C30.0433 35.5804 31.5863 36.4184 33.5016 36.4184C35.417 36.4184 36.9599 35.5804 36.9599 35.2745C36.9599 35.2878 35.8559 34.5562 35.1111 34.4498Z" fill="#D89364"/>
<path d="M33.5016 35.434C31.4533 35.434 30.0433 35.2877 30.0433 35.2877C30.0433 35.5936 31.5863 36.7774 33.5016 36.7774C35.417 36.7774 36.9599 35.5936 36.9599 35.2877C36.9599 35.2877 35.55 35.434 33.5016 35.434Z" fill="#CE8757"/>
<path d="M21.9698 23.6758C20.8525 23.862 19.9879 24.3541 20.6264 28.0518C21.2648 31.7495 22.0496 31.9225 23.1669 31.7362L21.9698 23.6758Z" fill="#F4B382"/>
<path d="M42.7988 12.3966C41.7879 9.09789 37.2788 7.9939 33.5013 7.9939C27.0237 7.9939 21.7565 12.2236 21.7565 23.7158L24.4566 23.2635C24.4566 22.9177 37.3586 15.4425 37.3586 15.4425C38.6489 16.2007 40.6839 15.7085 40.6839 15.7085C40.6839 15.2031 42.5594 23.2635 42.5594 23.2635L45.2462 23.7158C45.2462 16.4667 42.7988 12.3966 42.7988 12.3966Z" fill="#51250D"/>
<path d="M24.4564 23.2636L22.5144 18.7279C21.9557 20.1777 21.7695 21.9734 21.7695 23.7158C21.7695 23.7158 22.94 23.4631 22.94 24.0616L23.3125 27.7327L23.8312 27.48C23.778 24.4208 24.4564 23.2636 24.4564 23.2636Z" fill="#51250D"/>
<path d="M45.0466 23.6758L43.8495 31.7362C44.9668 31.9225 45.7515 31.7495 46.39 28.0518C47.0151 24.3541 46.1639 23.8753 45.0466 23.6758Z" fill="#F4B382"/>
<path d="M44.5013 18.7279L42.5593 23.2636C42.5593 23.2636 43.2377 24.4341 43.2111 27.4933L43.7298 27.746L44.1022 24.0749C44.1022 23.4764 45.2727 23.7291 45.2727 23.7291C45.2594 21.9601 45.0732 20.1777 44.5013 18.7279Z" fill="#51250D"/>
<path d="M43.6102 10.1755C41.8146 7.51526 36.8932 5.21417 33.528 5.21417C30.1628 5.21417 25.2148 7.51526 23.4191 10.1755C21.7432 12.6495 21.3043 19.6725 21.9294 19.6725H45.0999C45.5123 19.6725 45.2861 12.6495 43.6102 10.1755Z" fill="#E5AA17"/>
<path d="M21.677 18.821L21.7967 21.6142C21.7967 21.6142 26.8378 22.133 33.5017 22.133C40.1655 22.133 45.1933 21.6142 45.1933 21.6142L45.2199 18.821H21.677Z" fill="#EFC76C"/>
<path d="M33.5014 4.76184C31.2402 4.76184 29.418 5.21408 29.418 6.15846V9.1778C29.418 10.1222 31.2402 20.7364 33.5014 20.7364C35.7493 20.7364 37.5848 10.1222 37.5848 9.1778V6.15846C37.5848 5.22738 35.7493 4.76184 33.5014 4.76184Z" fill="#E5AA17"/>
<path d="M29.4311 6.15738C29.4178 6.14407 29.4045 6.14407 29.4045 6.15738C29.2981 6.4101 29.2581 6.66282 29.2182 6.91554C29.1916 7.03525 29.1916 7.16826 29.1783 7.28797C29.165 7.40768 29.165 7.54069 29.165 7.6604C29.165 7.78011 29.165 7.91312 29.1783 8.03283C29.1916 8.15254 29.1916 8.28555 29.2182 8.40526C29.2581 8.65798 29.3114 8.9107 29.4045 9.16342L29.4178 9.17672C29.4311 9.17672 29.4311 9.17672 29.4311 9.16342L29.4444 7.6604L29.4311 6.15738Z" fill="#C18D17"/>
<path d="M37.8242 7.28903C37.8109 7.16933 37.8109 7.03631 37.7843 6.9166C37.7444 6.66388 37.6912 6.41116 37.5981 6.15844L37.5848 6.14514C37.5715 6.14514 37.5715 6.14514 37.5715 6.15844L37.5582 7.66147L37.5715 9.16449C37.5715 9.16449 37.5715 9.17779 37.5848 9.17779C37.5981 9.17779 37.5981 9.17779 37.5981 9.16449C37.7045 8.91177 37.7444 8.65905 37.7843 8.40633C37.8109 8.28662 37.8109 8.15361 37.8242 8.0339C37.8376 7.91419 37.8376 7.78118 37.8376 7.66147C37.8376 7.54176 37.8376 7.42205 37.8242 7.28903Z" fill="#C18D17"/>
<path d="M35.9222 5.69283C35.9222 4.74846 34.8448 3.9903 33.5014 3.9903C32.158 3.9903 31.0806 4.76176 31.0806 5.69283L29.4712 18.555C29.4712 19.4994 32.1713 20.2575 33.5014 20.2575C34.8315 20.2575 37.5316 19.4861 37.5316 18.555L35.9222 5.69283Z" fill="#F4B21E"/>
<path d="M44.7278 17.185C43.0519 17.1185 38.2635 18.1826 33.5017 18.1826C28.8064 18.1826 24.1377 17.1185 22.515 17.185C20.9056 17.185 20.3735 20.3241 20.3735 20.3241C20.3735 20.3241 26.0265 20.896 33.515 20.896C41.0035 20.896 46.6299 20.3241 46.6299 20.3241C46.6299 20.3241 46.1244 17.185 44.7278 17.185Z" fill="#E5AA17"/>
<path d="M42.2402 17.7436C41.256 17.8101 40.285 17.8633 39.3007 17.9032C37.3454 17.983 35.3769 18.0495 33.4216 18.0362C31.4664 18.0495 29.4978 17.983 27.5425 17.9032C26.5583 17.8633 25.5873 17.8101 24.603 17.7436C23.6187 17.6904 22.6477 17.6106 21.6635 17.5441C22.6344 17.6771 23.6054 17.7835 24.5897 17.8899C25.5607 17.983 26.545 18.0628 27.5292 18.1293C29.4845 18.2623 31.4531 18.3155 33.4216 18.3288C35.3902 18.3155 37.3454 18.2623 39.314 18.1293C40.2983 18.0628 41.2693 17.983 42.2535 17.8899C43.2245 17.7835 44.2088 17.6904 45.1798 17.5441C44.1955 17.6106 43.2245 17.6904 42.2402 17.7436Z" fill="#C18D17"/>
</svg>
