<svg width="168" height="38" viewBox="0 0 168 38" fill="none" xmlns="http://www.w3.org/2000/svg">
<path d="M62.6881 26.126C61.7641 26.126 60.9361 25.976 60.2041 25.676C59.4721 25.376 58.8841 24.932 58.4401 24.344C58.0081 23.756 57.7801 23.048 57.7561 22.22H61.0321C61.0801 22.688 61.2421 23.048 61.5181 23.3C61.7941 23.54 62.1541 23.66 62.5981 23.66C63.0541 23.66 63.4141 23.558 63.6781 23.354C63.9421 23.138 64.0741 22.844 64.0741 22.472C64.0741 22.16 63.9661 21.902 63.7501 21.698C63.5461 21.494 63.2881 21.326 62.9761 21.194C62.6761 21.062 62.2441 20.912 61.6801 20.744C60.8641 20.492 60.1981 20.24 59.6821 19.988C59.1661 19.736 58.7221 19.364 58.3501 18.872C57.9781 18.38 57.7921 17.738 57.7921 16.946C57.7921 15.77 58.2181 14.852 59.0701 14.192C59.9221 13.52 61.0321 13.184 62.4001 13.184C63.7921 13.184 64.9141 13.52 65.7661 14.192C66.6181 14.852 67.0741 15.776 67.1341 16.964H63.8041C63.7801 16.556 63.6301 16.238 63.3541 16.01C63.0781 15.77 62.7241 15.65 62.2921 15.65C61.9201 15.65 61.6201 15.752 61.3921 15.956C61.1641 16.148 61.0501 16.43 61.0501 16.802C61.0501 17.21 61.2421 17.528 61.6261 17.756C62.0101 17.984 62.6101 18.23 63.4261 18.494C64.2421 18.77 64.9021 19.034 65.4061 19.286C65.9221 19.538 66.3661 19.904 66.7381 20.384C67.1101 20.864 67.2961 21.482 67.2961 22.238C67.2961 22.958 67.1101 23.612 66.7381 24.2C66.3781 24.788 65.8501 25.256 65.1541 25.604C64.4581 25.952 63.6361 26.126 62.6881 26.126ZM91.4203 17.432C91.4203 18.164 91.2523 18.836 90.9163 19.448C90.5803 20.048 90.0643 20.534 89.3683 20.906C88.6723 21.278 87.8083 21.464 86.7763 21.464H84.8683V26H81.7903V13.364H86.7763C87.7843 13.364 88.6363 13.538 89.3323 13.886C90.0283 14.234 90.5503 14.714 90.8983 15.326C91.2463 15.938 91.4203 16.64 91.4203 17.432ZM86.5423 19.016C87.1303 19.016 87.5683 18.878 87.8563 18.602C88.1443 18.326 88.2883 17.936 88.2883 17.432C88.2883 16.928 88.1443 16.538 87.8563 16.262C87.5683 15.986 87.1303 15.848 86.5423 15.848H84.8683V19.016H86.5423ZM113.489 23.768H108.773L108.017 26H104.795L109.367 13.364H112.931L117.503 26H114.245L113.489 23.768ZM112.697 21.392L111.131 16.766L109.583 21.392H112.697ZM137.938 26L135.31 21.23H134.572V26H131.494V13.364H136.66C137.656 13.364 138.502 13.538 139.198 13.886C139.906 14.234 140.434 14.714 140.782 15.326C141.13 15.926 141.304 16.598 141.304 17.342C141.304 18.182 141.064 18.932 140.584 19.592C140.116 20.252 139.42 20.72 138.496 20.996L141.412 26H137.938ZM134.572 19.052H136.48C137.044 19.052 137.464 18.914 137.74 18.638C138.028 18.362 138.172 17.972 138.172 17.468C138.172 16.988 138.028 16.61 137.74 16.334C137.464 16.058 137.044 15.92 136.48 15.92H134.572V19.052ZM163.162 26L158.914 20.42V26H155.836V13.364H158.914V18.908L163.126 13.364H166.744L161.848 19.556L166.924 26H163.162Z" fill="#263640"/>
<path fill-rule="evenodd" clip-rule="evenodd" d="M27.2994 14.9565L35.1479 14.9792L22.3044 37.0174L8.54602 37.0169L0.00012207 22.3525C2.77222 22.5668 6.03589 23.0911 7.91758 24.4468C9.85222 25.841 11.431 28.5001 12.6222 30.5278L15.3563 35.1598L19.8132 27.8009L27.2994 14.9565Z" fill="#263640"/>
<path fill-rule="evenodd" clip-rule="evenodd" d="M15.7009 22.0609L7.85229 22.0382L20.6955 0L34.4544 0.000279534L43.0001 14.6648C40.2278 14.4505 36.9643 13.9264 35.0825 12.5705C33.1478 11.176 31.5692 8.51733 30.378 6.48941L27.6433 1.85721L23.187 9.21625L15.7009 22.0609Z" fill="#263640"/>
</svg>
