<svg width="160" height="37" viewBox="0 0 160 37" fill="none" xmlns="http://www.w3.org/2000/svg">
<path d="M51.688 25.126C50.764 25.126 49.936 24.976 49.204 24.676C48.472 24.376 47.884 23.932 47.44 23.344C47.008 22.756 46.78 22.048 46.756 21.22H50.032C50.08 21.688 50.242 22.048 50.518 22.3C50.794 22.54 51.154 22.66 51.598 22.66C52.054 22.66 52.414 22.558 52.678 22.354C52.942 22.138 53.074 21.844 53.074 21.472C53.074 21.16 52.966 20.902 52.75 20.698C52.546 20.494 52.288 20.326 51.976 20.194C51.676 20.062 51.244 19.912 50.68 19.744C49.864 19.492 49.198 19.24 48.682 18.988C48.166 18.736 47.722 18.364 47.35 17.872C46.978 17.38 46.792 16.738 46.792 15.946C46.792 14.77 47.218 13.852 48.07 13.192C48.922 12.52 50.032 12.184 51.4 12.184C52.792 12.184 53.914 12.52 54.766 13.192C55.618 13.852 56.074 14.776 56.134 15.964H52.804C52.78 15.556 52.63 15.238 52.354 15.01C52.078 14.77 51.724 14.65 51.292 14.65C50.92 14.65 50.62 14.752 50.392 14.956C50.164 15.148 50.05 15.43 50.05 15.802C50.05 16.21 50.242 16.528 50.626 16.756C51.01 16.984 51.61 17.23 52.426 17.494C53.242 17.77 53.902 18.034 54.406 18.286C54.922 18.538 55.366 18.904 55.738 19.384C56.11 19.864 56.296 20.482 56.296 21.238C56.296 21.958 56.11 22.612 55.738 23.2C55.378 23.788 54.85 24.256 54.154 24.604C53.458 24.952 52.636 25.126 51.688 25.126ZM80.4202 16.432C80.4202 17.164 80.2522 17.836 79.9162 18.448C79.5802 19.048 79.0642 19.534 78.3682 19.906C77.6722 20.278 76.8082 20.464 75.7762 20.464H73.8682V25H70.7902V12.364H75.7762C76.7842 12.364 77.6362 12.538 78.3322 12.886C79.0282 13.234 79.5502 13.714 79.8982 14.326C80.2462 14.938 80.4202 15.64 80.4202 16.432ZM75.5422 18.016C76.1302 18.016 76.5682 17.878 76.8562 17.602C77.1442 17.326 77.2882 16.936 77.2882 16.432C77.2882 15.928 77.1442 15.538 76.8562 15.262C76.5682 14.986 76.1302 14.848 75.5422 14.848H73.8682V18.016H75.5422ZM100.599 25.126C99.4106 25.126 98.3186 24.85 97.3226 24.298C96.3386 23.746 95.5526 22.978 94.9646 21.994C94.3886 20.998 94.1006 19.882 94.1006 18.646C94.1006 17.41 94.3886 16.3 94.9646 15.316C95.5526 14.332 96.3386 13.564 97.3226 13.012C98.3186 12.46 99.4106 12.184 100.599 12.184C101.787 12.184 102.873 12.46 103.857 13.012C104.853 13.564 105.633 14.332 106.197 15.316C106.773 16.3 107.061 17.41 107.061 18.646C107.061 19.882 106.773 20.998 106.197 21.994C105.621 22.978 104.841 23.746 103.857 24.298C102.873 24.85 101.787 25.126 100.599 25.126ZM100.599 22.318C101.607 22.318 102.411 21.982 103.011 21.31C103.623 20.638 103.929 19.75 103.929 18.646C103.929 17.53 103.623 16.642 103.011 15.982C102.411 15.31 101.607 14.974 100.599 14.974C99.5786 14.974 98.7626 15.304 98.1506 15.964C97.5506 16.624 97.2506 17.518 97.2506 18.646C97.2506 19.762 97.5506 20.656 98.1506 21.328C98.7626 21.988 99.5786 22.318 100.599 22.318ZM132.677 25H129.599L124.451 17.206V25H121.373V12.364H124.451L129.599 20.194V12.364H132.677V25ZM155.374 22.768H150.658L149.902 25H146.68L151.252 12.364H154.816L159.388 25H156.13L155.374 22.768ZM154.582 20.392L153.016 15.766L151.468 20.392H154.582Z" fill="#263640"/>
<path fill-rule="evenodd" clip-rule="evenodd" d="M2.31453 29.0885L25.2439 15.8315V5.34314L16.0005 0L0.00100708 9.25028L0.000247955 14.4946L16.0005 5.24435L18.394 6.62836L0 17.2623L0.00100708 22.5056L20.7077 10.5347L20.7087 13.2103L0 25.1817L0.000247955 27.7502L2.31453 29.0885ZM27.4643 25.128L27.4637 25.1286L21.732 28.4413L16.0009 31.7555L13.6061 30.3713L20.5351 26.3661L27.4643 22.3609V25.128ZM27.4643 17.1158L4.53486 30.3723L15.9998 37L31.9995 27.7502C32 21.5837 32 15.4185 32 9.25016L27.4641 6.62772V17.1158H27.4643Z" fill="#263640"/>
</svg>
